<?xml version="1.0" standalone="no"?>
<!DOCTYPE svg PUBLIC "-//W3C//DTD SVG 20010904//EN"
 "http://www.w3.org/TR/2001/REC-SVG-20010904/DTD/svg10.dtd">
<svg version="1.0" xmlns="http://www.w3.org/2000/svg"
 width="768.000000pt" height="576.000000pt" viewBox="0 0 768.000000 576.000000"
 preserveAspectRatio="xMidYMid meet">

<g transform="translate(0.000000,576.000000) scale(0.100000,-0.100000)"
fill="#000000" stroke="none">
<path d="M707 5563 c-16 -16 -5 -45 26 -63 23 -15 46 -20 82 -18 43 3 50 6 53
25 2 16 -4 26 -22 35 -32 14 -48 1 -22 -18 17 -12 18 -14 3 -14 -9 0 -17 4
-17 9 0 13 -43 22 -51 10 -4 -7 -9 -8 -13 -1 -3 5 1 12 9 16 25 9 17 26 -13
26 -16 0 -32 -3 -35 -7z"/>
<path d="M4600 4251 c0 -5 7 -16 15 -25 14 -13 13 -16 -5 -26 -11 -6 -18 -15
-15 -21 11 -16 50 -10 63 12 11 17 10 23 -10 44 -23 25 -48 33 -48 16z"/>
<path d="M4681 4154 c-12 -8 -19 -19 -16 -24 9 -15 -35 -34 -48 -21 -8 8 -6
11 5 11 26 0 31 18 8 30 -16 9 -30 7 -60 -6 -25 -11 -37 -21 -31 -27 5 -5 7
-16 4 -23 -3 -9 2 -14 18 -14 18 0 20 -3 11 -12 -18 -18 -14 -38 8 -38 11 0
20 -7 20 -15 0 -8 9 -15 21 -15 11 0 17 -4 14 -10 -4 -6 -2 -16 3 -23 18 -24
10 -42 -20 -41 -15 0 -31 4 -35 7 -3 4 -15 7 -25 7 -34 0 -18 -42 20 -52 17
-5 32 -13 32 -19 0 -6 -7 -8 -16 -5 -8 3 -25 1 -37 -5 -20 -11 -20 -12 -2 -25
16 -12 17 -14 2 -20 -10 -3 -17 -12 -17 -20 0 -8 6 -11 17 -7 13 5 15 2 9 -18
-4 -13 -7 -28 -7 -34 1 -5 2 -33 3 -62 3 -50 2 -52 -18 -39 -24 17 -51 5 -64
-27 -8 -21 -9 -21 -9 4 -1 30 -18 49 -43 49 -19 0 -24 -15 -8 -25 17 -11 11
-40 -12 -54 -19 -12 -20 -14 -5 -23 9 -5 17 -18 17 -29 0 -12 10 -35 22 -52
18 -26 23 -46 23 -100 0 -61 -3 -71 -25 -89 -14 -12 -33 -18 -48 -15 -17 3
-26 -1 -32 -17 -5 -11 -9 -15 -9 -8 -1 17 -26 42 -41 42 -6 0 -10 -6 -9 -12 3
-28 -2 -36 -31 -41 -29 -6 -43 -27 -17 -27 8 0 7 -4 -3 -10 -10 -6 -2 -8 25
-4 39 6 40 6 17 -11 -24 -18 -21 -38 5 -28 11 5 14 3 9 -6 -6 -9 0 -12 20 -10
16 1 44 1 62 1 30 -2 31 -4 20 -22 -8 -13 -24 -20 -43 -20 -16 0 -37 -5 -45
-10 -12 -8 -9 -10 11 -10 20 0 28 -6 31 -24 4 -19 1 -22 -14 -18 -14 3 -18 -1
-18 -22 0 -15 6 -26 13 -26 9 0 12 -10 9 -30 -2 -17 0 -30 4 -28 13 4 64 -43
58 -53 -2 -4 -7 -26 -10 -48 -5 -33 -3 -41 10 -41 9 0 16 -5 16 -11 0 -8 4 -8
15 1 8 7 18 35 21 62 5 38 12 52 28 58 12 4 21 7 22 6 1 0 4 -14 8 -31 7 -29
7 -29 -8 -10 -15 19 -15 18 -16 -19 0 -21 -9 -54 -21 -72 -11 -19 -16 -34 -10
-34 6 0 11 -5 11 -11 0 -5 -4 -7 -10 -4 -19 12 -59 -45 -58 -82 2 -41 9 -47
34 -28 19 14 19 14 -1 15 -18 1 -18 2 3 10 12 5 22 16 22 23 0 19 27 72 43 86
11 8 13 6 13 -11 -1 -33 31 -35 46 -3 15 32 31 13 22 -27 -4 -18 -1 -28 6 -28
7 0 10 -6 7 -12 -2 -7 -1 -22 3 -33 5 -13 2 -26 -8 -37 -12 -15 -13 -18 -1
-18 8 0 1 -8 -14 -19 -15 -10 -35 -28 -43 -39 -8 -12 -21 -19 -28 -16 -19 7
-30 -14 -28 -49 2 -17 -2 -26 -8 -22 -5 3 -10 0 -10 -8 0 -10 7 -14 23 -11 21
4 21 4 -2 -6 -17 -7 -22 -16 -18 -30 6 -24 -3 -25 -29 -4 -10 8 -12 12 -4 8 8
-4 -3 9 -25 29 -22 20 -47 36 -55 37 -9 0 -7 -5 8 -16 12 -8 22 -20 22 -26 0
-6 18 -26 40 -45 22 -19 40 -41 40 -48 0 -8 6 -18 14 -22 14 -8 56 -94 56
-115 0 -6 -7 -8 -15 -4 -21 8 -45 -3 -45 -20 0 -8 9 -14 21 -14 16 0 19 -4 14
-22 l-6 -23 20 24 c18 19 21 20 21 6 0 -10 6 -23 14 -29 27 -22 85 -200 91
-282 3 -44 8 -107 10 -140 l5 -62 -84 -12 c-100 -15 -119 -24 -94 -44 20 -14
169 -43 242 -45 18 -1 19 -10 13 -259 -4 -141 -7 -265 -7 -274 0 -21 -41 -24
-117 -8 -26 5 -61 11 -78 13 -38 4 -96 30 -111 48 -12 14 -23 146 -24 278 0
35 -2 62 -4 60 -4 -4 -27 -248 -30 -311 -1 -23 -6 -28 -37 -33 -29 -5 -53 2
-130 38 -149 71 -252 118 -276 128 -13 5 -23 14 -23 21 0 10 2 10 9 -1 5 -8
17 -11 32 -6 19 5 21 4 9 -4 -12 -9 -10 -11 12 -11 22 0 26 4 21 18 -3 9 -10
23 -16 30 -6 8 -5 12 4 12 8 1 -1 7 -20 15 -18 8 -38 12 -44 8 -5 -3 -7 -1 -4
5 5 6 -27 23 -79 44 l-86 33 8 592 7 591 -44 6 c-89 12 -549 47 -566 44 -10
-2 23 -8 72 -12 106 -9 141 -16 126 -25 -7 -5 -11 -163 -11 -514 0 -278 -4
-508 -8 -511 -7 -4 -235 90 -462 192 -19 8 -64 27 -100 42 l-65 27 -5 224 c-3
123 -8 215 -11 204 -4 -11 -6 12 -6 50 0 68 0 69 7 20 l7 -50 1 53 c1 29 -2
52 -8 52 -5 0 -10 8 -10 18 0 14 2 15 10 2 7 -11 10 1 10 42 0 36 5 58 13 61
10 4 10 6 0 6 -14 1 -19 147 -5 154 4 2 81 -4 172 -14 91 -10 185 -17 210 -17
25 0 -54 11 -175 24 -121 13 -222 23 -224 24 -2 0 -1 9 2 20 3 11 1 20 -4 20
-5 0 -9 -4 -9 -9 0 -10 -13 -9 -177 4 -91 8 -93 7 -93 -14 0 -11 5 -21 11 -21
8 0 7 -6 -2 -17 -13 -15 -12 -15 9 -2 20 12 24 12 32 -1 6 -9 10 -10 10 -3 0
9 7 8 27 -2 20 -10 29 -11 34 -3 5 8 12 6 23 -5 15 -15 13 -16 -26 -11 -23 3
-45 7 -48 9 -3 2 -12 -1 -20 -6 -23 -14 6 -28 60 -30 25 -1 59 -5 75 -10 31
-8 -79 -3 -142 7 l-33 5 0 -63 c0 -35 -3 -152 -6 -262 -5 -161 -4 -200 7 -208
11 -7 11 -11 2 -15 -8 -3 -13 -24 -13 -52 0 -26 -3 -50 -6 -53 -6 -7 -44 8
-129 48 -45 20 -57 22 -120 15 -68 -8 -68 -8 -19 -10 48 -1 53 -3 67 -33 l16
-33 -52 -7 c-28 -3 -124 -12 -212 -18 -199 -14 -205 -15 -205 -40 0 -11 5 -20
11 -20 5 0 8 4 4 9 -3 6 6 7 23 2 17 -5 36 -5 46 1 10 5 35 8 57 5 22 -2 42
-1 45 4 3 5 13 9 22 8 14 0 13 -2 -3 -9 -19 -8 -19 -9 2 -9 13 -1 31 7 41 17
19 19 38 18 61 -5 11 -12 15 -12 22 -1 7 10 9 10 9 1 0 -7 5 -13 11 -13 6 0 9
7 5 15 -3 8 -2 15 3 15 23 0 98 -33 109 -48 7 -9 16 -17 20 -18 18 -2 49 -19
70 -38 21 -19 23 -19 16 -2 -5 14 -4 17 4 12 7 -4 12 -13 12 -19 0 -7 12 -20
25 -30 22 -15 25 -16 25 -2 0 8 -6 15 -14 15 -8 0 -17 4 -20 9 -4 5 4 7 16 4
23 -4 23 -4 3 12 -19 16 -19 16 17 11 49 -8 140 -50 131 -61 -5 -4 -1 -6 8 -3
9 4 21 3 28 -1 7 -5 -15 -11 -51 -14 -38 -3 -68 -1 -76 5 -7 6 -15 8 -18 5
-10 -9 37 -29 57 -24 11 3 19 0 19 -6 0 -7 5 -5 10 3 8 13 10 12 10 -2 0 -10
7 -18 16 -18 8 0 12 -4 9 -10 -3 -6 1 -7 9 -4 10 4 16 1 16 -9 0 -9 14 -18 38
-23 41 -8 40 -8 66 2 15 6 17 4 12 -14 -7 -21 15 -40 42 -36 6 1 22 3 35 4 12
2 3 6 -23 10 l-45 7 40 1 c23 1 50 -5 63 -14 15 -10 33 -14 50 -10 15 4 22 3
15 -1 -8 -6 -8 -13 3 -27 13 -19 14 -19 15 5 0 13 3 18 6 12 2 -7 19 -13 36
-13 28 0 29 -1 13 -13 -16 -11 -13 -13 25 -15 23 -2 50 -7 60 -12 10 -6 25 -7
33 -4 11 4 15 2 11 -7 -6 -19 14 -49 22 -31 7 18 24 14 21 -5 -2 -10 3 -17 10
-15 6 1 12 -4 12 -12 0 -7 9 -16 20 -19 11 -3 18 -1 14 4 -8 14 10 11 32 -6
19 -14 19 -14 0 -15 -18 0 -18 -1 -1 -20 10 -11 23 -20 28 -20 6 0 2 7 -9 15
-22 17 -15 19 20 5 16 -6 27 -6 31 0 10 16 23 11 21 -7 0 -12 7 -19 22 -21 12
-2 22 -9 22 -16 0 -8 14 -16 31 -20 17 -3 44 -15 60 -27 16 -11 29 -15 29 -9
0 6 5 8 10 5 6 -4 4 -12 -5 -22 -9 -8 -19 -13 -22 -9 -3 3 -12 1 -20 -6 -11
-8 -12 -7 -7 5 8 21 -53 54 -69 38 -8 -8 -5 -11 11 -11 12 0 28 -10 36 -22 13
-20 23 -23 85 -23 38 0 68 -2 65 -6 -2 -3 5 -14 16 -24 11 -10 20 -24 20 -30
0 -7 16 -15 35 -18 19 -3 40 -11 47 -17 59 -49 64 -52 104 -48 30 2 40 0 37
-10 -4 -9 4 -12 24 -10 33 2 61 -11 45 -21 -6 -4 6 -7 26 -7 20 0 52 -7 71
-17 19 -9 41 -17 50 -18 12 0 11 -3 -4 -9 -17 -8 -15 -9 11 -8 33 2 86 -30 79
-49 -2 -7 2 -10 11 -6 16 6 18 19 4 28 -12 8 -13 35 -1 35 5 0 11 -10 14 -22
4 -12 9 -19 12 -16 4 3 23 -5 42 -18 35 -23 53 -30 53 -18 0 3 -13 9 -28 15
-16 5 -29 16 -29 24 0 20 16 19 41 -2 20 -17 20 -17 7 0 -12 15 -11 17 8 17
13 0 21 -7 22 -17 0 -11 3 -13 6 -5 7 18 33 15 33 -4 0 -13 7 -15 30 -11 16 4
38 3 47 0 15 -6 14 -8 -7 -15 -18 -6 -15 -7 14 -3 32 3 36 2 23 -8 -12 -8 -14
-16 -7 -27 8 -13 10 -12 10 3 0 9 7 17 15 17 8 0 12 -6 9 -14 -3 -8 -1 -17 5
-21 6 -3 11 1 11 9 0 19 5 20 31 6 10 -6 19 -20 19 -30 0 -24 -3 -24 85 -5 38
8 93 17 122 20 l52 5 3 -62 c2 -50 6 -63 21 -66 15 -3 17 5 17 67 0 39 3 71 8
71 34 0 362 -141 362 -155 0 -13 -18 -17 -112 -31 -34 -4 -49 -12 -53 -25 -4
-10 -13 -20 -21 -20 -22 -2 -27 -4 -64 -21 -54 -25 -96 -39 -106 -37 -5 1 -11
0 -14 -1 -3 -1 -14 -3 -25 -4 -53 -7 -85 -19 -85 -32 0 -8 -6 -14 -14 -14 -19
0 -36 -23 -27 -38 6 -10 16 -9 45 3 20 9 41 13 46 10 5 -3 19 4 31 16 16 16
36 22 78 24 79 3 81 4 78 18 -1 6 7 11 17 10 11 -1 31 7 44 17 13 11 43 22 67
26 25 3 54 15 67 25 20 18 31 22 90 34 26 5 35 -35 12 -53 -16 -12 -16 -14 -2
-9 10 3 20 2 23 -2 2 -5 -16 -14 -42 -20 -25 -7 -57 -21 -71 -32 -14 -10 -33
-19 -43 -19 -10 0 -24 -9 -32 -20 -18 -26 -61 -42 -123 -44 -27 -2 -56 -6 -63
-10 -6 -4 -32 -8 -57 -9 -25 0 -40 -3 -34 -7 8 -5 3 -10 -12 -13 -36 -9 -78
-46 -78 -68 0 -10 3 -19 6 -19 7 0 87 61 95 73 4 5 17 11 30 12 13 2 35 7 49
12 14 5 54 8 90 7 70 -3 133 9 150 29 6 7 18 21 26 32 9 11 13 14 9 7 -4 -8 6
-5 27 6 18 10 46 22 61 26 15 3 25 11 22 16 -3 6 1 10 9 10 14 0 16 -23 16
-174 l0 -174 35 -4 c33 -4 35 -2 41 32 12 71 43 222 46 225 2 1 15 5 30 9 23
5 26 3 23 -15 -3 -14 0 -19 9 -16 7 3 19 1 27 -4 10 -6 16 -3 21 9 4 11 7 5 7
-18 1 -26 -2 -31 -9 -20 -5 8 -10 10 -10 4 0 -23 28 -43 70 -49 25 -4 47 -11
48 -16 2 -5 8 -7 13 -3 5 3 9 1 9 -4 0 -6 -13 -15 -29 -20 -16 -6 -35 -21 -42
-34 -10 -19 -10 -21 2 -12 21 16 69 26 69 14 0 -5 -6 -10 -12 -11 -7 0 -4 -4
7 -9 11 -4 24 -4 29 1 17 15 32 10 33 -11 1 -11 -3 -20 -8 -20 -6 0 -7 4 -4
10 8 13 -15 13 -35 0 -9 -5 -19 -5 -27 2 -21 17 -15 -6 8 -31 22 -24 19 -51
-6 -51 -9 0 -13 -5 -10 -11 4 -5 17 -9 28 -7 12 1 27 0 32 -3 10 -7 20 -10
170 -54 50 -15 147 -47 217 -71 l127 -44 756 0 756 0 -1 370 c-1 204 -4 370
-6 370 -3 0 -15 -9 -27 -20 -12 -11 -27 -18 -35 -15 -7 3 -10 0 -7 -6 4 -6 13
-8 20 -5 8 3 21 -7 30 -20 16 -24 15 -26 -2 -39 -10 -7 -20 -11 -23 -8 -3 2 3
10 13 18 27 19 -1 35 -54 31 -24 -2 -54 0 -66 5 -13 5 -25 4 -28 -1 -4 -6 -11
-10 -18 -10 -8 0 -8 3 1 12 7 7 29 12 50 11 32 -1 33 0 12 6 -14 5 -44 6 -67
3 -30 -3 -43 -1 -43 7 0 8 -7 7 -22 -3 -27 -19 -38 -20 -38 -4 0 6 3 8 7 5 8
-8 33 11 33 25 0 6 -7 5 -15 -2 -12 -10 -15 -10 -15 3 0 9 14 24 30 34 43 25
37 35 -7 12 -41 -21 -63 -24 -63 -9 0 6 -7 10 -15 10 -8 0 -15 4 -15 10 0 12
35 31 44 23 3 -3 6 -1 6 6 0 8 -13 11 -42 8 -35 -4 -39 -2 -25 8 22 16 21 25
-2 25 -27 0 -51 -10 -51 -22 0 -6 7 -8 15 -4 8 3 14 0 12 -7 -1 -7 8 -12 21
-11 12 0 22 -2 22 -5 -1 -15 -17 -30 -40 -36 -21 -5 -26 -2 -27 14 -1 12 4 21
10 21 14 1 -50 30 -65 30 -5 0 -6 -5 -3 -10 3 -6 -1 -13 -10 -16 -9 -4 -14
-13 -11 -20 3 -8 1 -14 -4 -14 -6 0 -10 5 -10 11 0 5 -4 7 -10 4 -5 -3 -10 -2
-10 4 0 5 -6 11 -12 14 -7 2 -5 3 5 1 10 -1 14 2 10 9 -4 6 2 8 15 5 12 -4 22
-2 22 3 0 10 -65 7 -76 -3 -3 -3 -14 -4 -24 -1 -16 4 -18 11 -13 32 l6 26 -27
-25 c-19 -18 -25 -20 -20 -7 3 9 10 17 15 17 4 0 16 12 24 28 13 21 15 23 12
6 -6 -29 9 -54 21 -36 5 7 13 12 18 11 5 -1 22 -1 37 0 23 1 26 3 15 14 -10
12 -15 12 -26 0 -12 -12 -17 -12 -33 3 -11 9 -19 23 -19 30 0 8 -12 10 -42 7
-35 -5 -40 -4 -35 10 4 11 2 14 -8 10 -8 -3 -13 -8 -11 -12 2 -3 -14 -7 -36
-8 -34 -1 -37 1 -22 12 17 12 16 13 -4 19 -12 4 -26 4 -32 1 -5 -3 -10 -3 -10
2 0 4 11 13 24 19 19 9 23 9 20 -1 -3 -8 5 -10 28 -7 28 4 30 6 13 13 -19 7
-19 8 3 10 12 1 27 3 32 4 6 1 13 3 17 4 4 0 -2 8 -13 16 -10 8 -14 15 -8 15
6 0 21 -9 34 -20 13 -11 30 -20 38 -20 8 0 -2 14 -23 30 -21 17 -39 30 -42 30
-7 0 -47 -25 -61 -38 -18 -16 -30 -6 -14 10 15 15 15 28 1 28 -5 0 -7 -5 -4
-11 5 -7 -4 -8 -28 -4 -21 4 -37 3 -41 -4 -4 -6 -1 -9 7 -5 8 3 18 1 22 -5 3
-7 -2 -11 -14 -11 -11 0 -23 -4 -26 -10 -3 -5 -19 -10 -36 -10 -21 0 -29 -5
-30 -17 0 -12 -2 -13 -6 -5 -4 10 -8 9 -18 -5 -12 -16 -13 -15 -12 10 1 14 7
26 12 26 37 -4 85 3 85 12 0 7 -12 10 -29 7 -17 -2 -28 -1 -25 4 3 4 -2 8 -10
8 -9 0 -16 -4 -16 -9 0 -11 -47 -7 -58 4 -4 4 3 5 15 2 13 -3 26 -1 29 4 3 5
-9 9 -26 9 -20 0 -29 4 -24 11 7 12 72 3 92 -13 8 -7 12 -7 12 0 0 6 -6 13
-12 15 -8 3 -6 6 5 6 9 1 17 -4 17 -10 0 -7 7 -8 18 -4 9 4 31 8 47 8 21 -1
23 1 8 4 -13 2 -23 13 -25 26 -4 29 -41 34 -73 9 -13 -11 -21 -22 -18 -26 3
-3 1 -6 -5 -6 -7 0 -12 3 -12 8 0 4 -18 7 -40 7 -22 1 -35 -2 -29 -6 6 -3 1
-9 -12 -12 -13 -4 -25 -4 -28 -2 -2 3 1 5 7 5 7 0 12 5 12 11 0 5 -4 7 -10 4
-6 -3 -10 -1 -10 5 0 6 -7 10 -16 8 -10 -2 -19 3 -21 10 -3 7 5 12 21 12 14 0
26 -5 26 -11 0 -5 5 -7 10 -4 14 9 -6 45 -25 45 -8 0 -12 6 -9 15 4 11 11 8
30 -13 13 -15 24 -21 24 -14 0 10 4 9 16 -3 11 -11 26 -15 43 -11 25 5 25 5 4
-6 -13 -6 -23 -15 -23 -20 0 -5 8 -4 19 1 10 6 21 8 24 4 8 -7 37 22 37 36 0
6 5 11 10 11 6 0 10 -5 10 -12 0 -6 6 -4 13 6 14 19 127 36 127 19 0 -6 12 -9
28 -6 27 3 27 3 3 -7 -13 -6 -26 -8 -29 -5 -3 3 -13 -2 -22 -10 -10 -9 -21
-15 -26 -14 -5 1 -18 0 -29 -1 -17 -2 -16 -3 5 -9 14 -4 30 -5 35 -1 16 11 55
19 55 11 0 -4 14 -7 30 -6 17 1 33 -2 36 -7 3 -4 13 -8 22 -8 15 1 15 2 -2 15
-13 10 -17 21 -12 39 9 36 23 33 18 -4 -4 -28 -2 -30 26 -30 17 0 34 -4 37
-10 9 -14 43 -12 47 2 3 7 7 3 10 -8 5 -19 2 -20 -32 -14 -30 5 -37 4 -33 -7
3 -8 -2 -13 -17 -13 -11 0 -18 -4 -15 -10 4 -6 -5 -10 -19 -10 -14 0 -26 5
-26 10 0 6 -7 10 -16 10 -8 0 -12 5 -9 10 3 6 2 10 -4 10 -21 0 -21 -21 1 -30
13 -6 34 -17 47 -25 28 -16 48 -10 56 16 5 14 16 19 41 19 20 0 34 -5 34 -12
0 -10 2 -10 8 0 9 14 42 6 42 -10 0 -5 -26 -6 -62 -3 -46 5 -59 4 -48 -4 13
-9 12 -12 -7 -17 -27 -7 -30 -19 -7 -28 22 -8 26 -8 19 4 -10 16 28 -2 46 -22
20 -22 30 -23 23 -3 -4 8 -1 15 5 15 6 0 11 -5 11 -11 0 -6 13 -8 32 -5 18 3
38 0 45 -6 9 -7 13 -7 13 0 0 6 -4 14 -10 17 -14 8 -13 25 2 25 6 0 8 -3 5 -7
-8 -7 11 -33 24 -33 5 0 7 11 3 24 -5 20 -1 24 27 30 18 3 37 2 42 -3 6 -6 4
-9 -4 -8 -47 2 -50 -2 -33 -28 13 -20 13 -25 3 -25 -11 0 -11 -2 1 -10 8 -5
10 -10 4 -10 -7 0 -15 -8 -19 -17 -5 -14 -3 -15 6 -6 9 9 17 6 34 -13 22 -24
48 -30 79 -18 9 3 13 10 10 15 -9 16 12 10 35 -10 22 -19 101 -28 101 -10 0 5
10 8 23 6 l22 -2 3 589 c2 465 0 591 -10 598 -10 6 -9 8 2 9 8 1 -1 4 -20 8
-26 5 -37 2 -42 -9 -6 -13 -7 -12 -7 2 -1 13 -14 17 -73 21 -40 2 -127 13
-193 25 -198 34 -185 36 -217 -28 -25 -49 -28 -65 -28 -155 0 -55 -4 -116 -10
-135 -14 -53 -21 -210 -9 -231 5 -11 14 -44 20 -74 5 -30 19 -74 30 -99 10
-24 20 -63 21 -85 1 -31 9 -49 30 -72 35 -36 28 -51 -20 -43 -20 3 -68 9 -107
14 -94 11 -135 21 -135 32 0 5 -4 6 -10 3 -5 -3 -10 -1 -10 5 0 6 -4 9 -9 6
-5 -3 -12 1 -15 10 -5 14 -9 14 -23 3 -15 -13 -16 -11 -10 16 7 28 6 29 -6 8
-9 -16 -16 -20 -27 -13 -9 6 -17 5 -22 -3 -5 -8 -8 -6 -8 5 0 10 -3 17 -7 16
-5 0 -33 3 -63 7 -30 5 -59 8 -65 6 -36 -10 -87 -7 -92 6 -5 12 -7 12 -14 1
-7 -10 -9 -10 -9 2 0 13 -1 13 -10 0 -9 -13 -11 -13 -19 0 -5 8 -7 18 -4 24 4
5 -3 7 -15 4 -17 -5 -23 -1 -28 19 -5 18 -9 21 -15 12 -4 -7 -11 -10 -15 -7
-8 8 -34 -14 -27 -24 2 -5 -3 -8 -11 -8 -9 0 -16 5 -16 12 0 6 -7 3 -16 -8 -8
-10 -13 -13 -9 -6 9 18 -6 15 -22 -5 -8 -10 -12 -13 -9 -7 3 7 -5 14 -19 16
-13 3 -26 1 -27 -3 -2 -5 -15 -2 -30 5 -15 8 -29 11 -33 8 -10 -10 -35 -11
-35 0 0 5 -7 2 -16 -7 -12 -11 -20 -13 -29 -5 -9 8 -14 7 -17 -1 -3 -10 -15
-10 -50 -1 -58 15 -132 16 -123 2 3 -6 1 -10 -4 -10 -19 0 -26 -2 -46 -13 -18
-9 -19 -9 -5 8 14 17 13 17 -10 11 l-25 -8 22 16 c12 9 20 23 17 30 -6 16 32
46 57 46 15 0 15 5 2 53 -12 45 -11 57 1 87 17 41 27 118 17 125 -11 6 -393
-35 -412 -44 -9 -5 -31 -3 -55 6 -21 8 -66 17 -99 19 -33 3 -84 14 -114 25
-29 11 -62 17 -72 14 -11 -4 -19 -2 -19 4 0 17 -37 13 -44 -5 -9 -24 2 -34 28
-25 23 9 85 -1 141 -24 17 -7 37 -15 45 -18 8 -3 -7 -6 -35 -7 -47 -2 -48 -2
-20 -11 17 -5 49 -8 72 -7 23 1 45 -1 49 -5 4 -4 -7 -7 -24 -7 -18 0 -31 -3
-31 -7 3 -20 -2 -43 -8 -41 -5 0 -16 -2 -26 -7 -10 -4 -23 -2 -31 4 -9 8 -16
8 -20 2 -11 -17 62 -25 81 -10 12 11 17 11 20 2 9 -25 8 -28 -12 -28 -12 0
-20 -7 -20 -17 0 -21 -3 -21 -73 -12 -43 5 -50 9 -41 20 9 11 8 15 -4 20 -23
9 -41 -5 -27 -21 8 -10 4 -15 -20 -23 -18 -7 -30 -7 -30 -1 0 5 -7 9 -15 9 -9
0 -18 12 -21 30 -4 17 -10 30 -15 30 -14 0 -11 -38 4 -43 7 -3 5 -6 -5 -6 -10
-1 -18 3 -18 8 0 4 -12 6 -26 3 -19 -3 -25 -1 -20 7 6 8 0 10 -21 6 -26 -5
-26 -5 -5 5 13 5 28 8 32 5 5 -3 11 -1 15 5 3 5 1 10 -4 10 -6 0 -11 7 -11 15
0 8 -4 15 -8 15 -5 0 -7 13 -4 30 5 37 -10 39 -44 5 -14 -14 -30 -25 -37 -25
-9 0 -9 2 1 8 9 6 6 12 -12 22 -14 7 -27 22 -29 34 -4 21 -4 21 -6 -1 0 -12 4
-34 11 -50 6 -15 10 -34 9 -40 -1 -7 5 -13 14 -13 8 0 15 4 15 10 0 5 7 7 16
3 9 -3 20 0 25 8 6 11 11 11 21 1 14 -14 4 -26 -31 -37 -18 -5 -22 -4 -16 6 6
9 3 11 -9 6 -10 -4 -25 -7 -34 -8 -9 0 1 -7 23 -15 22 -9 47 -19 56 -24 9 -5
27 -6 40 -3 17 3 20 2 10 -5 -10 -7 -5 -13 23 -22 20 -6 36 -16 36 -21 0 -5
14 -9 31 -9 17 0 28 -4 24 -10 -3 -5 -2 -10 4 -10 5 0 12 4 15 8 6 9 76 3 76
-7 0 -4 -18 -5 -40 -3 -25 3 -40 0 -40 -7 0 -6 5 -11 12 -11 6 0 9 -2 6 -5 -2
-3 -47 7 -99 21 -167 46 -204 60 -201 76 2 15 -56 48 -84 48 -8 0 -12 5 -9 10
4 6 -7 13 -24 16 -28 6 -30 10 -33 53 -2 25 -2 79 0 119 l4 74 36 -7 c80 -14
85 -14 39 1 l-48 16 6 111 c6 105 20 177 36 177 19 0 28 -37 37 -154 6 -71 14
-131 18 -135 4 -3 3 32 0 79 -15 170 -16 319 -3 315 7 -3 18 -1 26 4 10 7 11
13 1 30 -14 28 -5 55 28 86 34 32 54 32 48 3 -3 -13 -10 -57 -17 -98 -6 -41
-15 -79 -19 -85 -4 -5 -8 -28 -8 -50 -1 -22 -6 -69 -11 -105 -19 -123 -22
-170 -12 -170 5 0 12 26 16 58 7 66 50 239 75 297 4 11 18 57 31 103 l22 83
15 -32 c16 -31 16 -31 80 -26 45 3 68 10 74 21 5 9 15 16 23 16 7 0 15 5 17
10 2 6 14 12 27 15 26 5 41 15 23 15 -7 0 -12 5 -12 10 0 6 6 10 13 9 30 -4
47 2 47 17 0 8 5 12 10 9 6 -4 16 -3 23 2 7 4 21 8 32 8 15 0 20 -7 20 -27 -1
-27 -1 -27 18 -7 13 14 20 37 21 70 l1 49 38 -2 c39 -2 38 1 41 -73 1 -35 17
-43 94 -44 58 -1 57 -2 66 75 l6 51 -187 5 c-106 3 -201 10 -217 17 -31 13
-31 2 -7 126 35 176 62 349 57 360 -3 8 -1 17 4 20 17 10 11 35 -5 28 -10 -3
-15 0 -13 8 2 8 -10 16 -32 20 l-35 6 34 2 c34 1 35 1 15 21 -36 36 -42 47
-34 60 5 8 5 21 0 31 -5 9 -6 20 -2 25 4 5 -1 2 -10 -5 -12 -9 -18 -9 -18 -3
0 10 26 30 40 30 14 1 59 22 64 30 10 17 -21 21 -49 6 -20 -10 -32 -11 -39 -4
-7 7 -5 10 7 10 23 0 22 20 0 20 -10 1 -3 8 17 17 19 8 30 17 24 19 -17 7 -64
-14 -64 -28 0 -7 -5 -5 -11 5 -12 21 1 43 32 52 26 8 9 39 -32 61 -17 8 -29
18 -26 21 3 2 23 -7 44 -21 20 -14 41 -26 45 -26 14 0 9 23 -9 43 -18 20 -18
20 15 3 37 -19 56 -15 24 5 -16 10 -18 16 -8 31 9 15 8 21 -4 28 -8 5 -11 12
-7 16 4 4 15 0 26 -10 16 -15 20 -15 33 -3 9 10 20 12 30 6 11 -6 23 -2 38 11
18 16 31 19 58 14 25 -5 33 -3 28 5 -4 6 -18 11 -30 11 -36 0 -116 48 -109 66
3 9 -5 18 -26 25 -23 8 -31 17 -31 34 0 30 -16 41 -35 25 -12 -10 -15 -9 -15
9 0 12 -7 24 -15 27 -8 4 -15 15 -15 25 0 10 -5 19 -10 19 -6 0 -10 -10 -9
-22 4 -44 -1 -58 -16 -52 -8 4 -15 2 -15 -4 0 -16 28 -34 42 -26 9 6 9 3 -1
-10 -10 -12 -16 -14 -21 -5 -6 8 -10 7 -16 -2 -11 -18 -12 -89 -2 -89 4 0 8
-4 8 -10 0 -5 -7 -10 -16 -10 -14 0 -15 -2 -3 -17 12 -15 12 -16 -4 -10 -10 4
-26 7 -35 7 -13 0 -13 3 4 16 18 14 17 15 -21 11 -33 -3 -44 1 -65 23 -17 18
-42 30 -70 35 -41 8 -43 9 -20 17 20 6 18 7 -11 4 -32 -4 -36 -2 -32 15 3 11
-1 21 -11 25 -22 9 -20 21 5 27 23 6 17 27 -7 27 -8 0 -14 5 -14 11 0 6 7 9
15 5 8 -3 15 -2 15 3 0 4 11 6 25 3 14 -2 25 0 25 6 0 7 14 9 35 5 23 -4 35
-2 35 6 0 6 -9 11 -20 11 -11 0 -20 7 -20 15 0 8 -9 15 -20 15 -11 0 -23 -7
-26 -15 -4 -8 -17 -15 -30 -15 -13 0 -24 -4 -24 -10 0 -5 -5 -10 -11 -10 -6 0
-9 7 -5 15 3 8 -4 21 -17 30 -18 12 -19 15 -4 15 21 0 23 29 1 37 -8 3 -20 1
-27 -6 -17 -17 -24 -13 -36 22 -16 44 -32 18 -19 -32 5 -20 10 -43 11 -51 1
-8 9 -21 17 -28 13 -10 13 -11 -2 -6 -27 9 -40 -4 -26 -26 7 -10 16 -16 20
-14 4 3 8 1 8 -4 0 -5 -16 -8 -34 -8 -26 1 -38 7 -45 24 -6 12 -15 22 -21 22
-5 0 -10 5 -10 11 0 6 14 0 31 -12 l31 -21 -4 28 c-2 18 -11 33 -25 39 -28 12
-29 19 -3 45 11 11 20 25 20 30 0 6 5 10 10 10 6 0 10 5 10 11 0 6 10 20 23
30 20 19 21 20 2 15 -13 -4 -24 1 -33 14 -11 19 -10 19 33 13 38 -5 44 -3 40
9 -4 10 2 18 17 22 13 4 18 10 11 12 -7 3 -20 1 -30 -4 -13 -7 -24 -6 -37 4
-29 21 -3 48 40 39 20 -3 35 -1 40 6 11 19 -128 3 -142 -15 -5 -8 -23 -17 -40
-20 -23 -5 -25 -4 -9 3 11 5 14 10 8 10 -18 1 -16 21 2 21 23 0 18 14 -13 32
-26 16 -31 16 -51 2z m-97 -49 c-6 -16 -24 -21 -24 -7 0 11 11 22 21 22 5 0 6
-7 3 -15z m201 -75 c3 -5 -1 -10 -10 -10 -9 0 -13 5 -10 10 3 6 8 10 10 10 2
0 7 -4 10 -10z m25 -60 c0 -5 -5 -10 -11 -10 -5 0 -7 5 -4 10 3 6 8 10 11 10
2 0 4 -4 4 -10z m-60 -30 c0 -5 -4 -10 -10 -10 -5 0 -10 5 -10 10 0 6 5 10 10
10 6 0 10 -4 10 -10z m-94 -96 c-9 -8 -16 -22 -16 -30 0 -8 -4 -12 -10 -9 -11
7 17 55 32 55 5 0 2 -7 -6 -16z m69 -4 c3 -5 1 -10 -4 -10 -6 0 -11 5 -11 10
0 6 2 10 4 10 3 0 8 -4 11 -10z m-5 -59 c-6 -12 -16 -19 -21 -15 -6 4 -4 13 7
25 21 24 29 18 14 -10z m185 -13 c15 2 25 0 25 -7 0 -6 -9 -11 -20 -11 -11 0
-20 -4 -20 -10 0 -24 -15 -7 -16 18 -1 15 0 22 3 16 2 -6 15 -9 28 -6z m418
-78 c-3 -11 -7 -20 -9 -20 -2 0 -4 9 -4 20 0 11 4 20 9 20 5 0 7 -9 4 -20z
m-53 6 c0 -3 -4 -8 -10 -11 -5 -3 -10 -1 -10 4 0 6 5 11 10 11 6 0 10 -2 10
-4z m177 -78 c14 -16 15 -18 1 -18 -18 0 -41 24 -32 33 4 3 -5 9 -20 13 -25 6
-34 23 -19 38 4 4 18 -5 31 -21 12 -15 30 -36 39 -45z m-432 -3 c0 -29 -4 -34
-30 -38 -39 -6 -53 3 -30 20 11 7 13 13 7 13 -22 0 -12 18 13 24 14 4 25 12
25 18 0 6 3 8 8 4 4 -4 7 -23 7 -41z m59 30 c9 -9 28 -22 43 -30 l28 -15 -28
0 c-19 0 -38 10 -57 30 -28 30 -15 44 14 15z m266 5 c0 -5 -4 -10 -10 -10 -5
0 -10 5 -10 10 0 6 5 10 10 10 6 0 10 -4 10 -10z m62 -62 c-9 -9 -12 -7 -12
12 0 19 3 21 12 12 9 -9 9 -15 0 -24z m-392 -49 c11 -6 6 -8 -16 -9 -18 0 -39
-8 -49 -20 -10 -11 -29 -20 -42 -20 -14 0 -21 -4 -18 -10 3 -5 2 -10 -4 -10
-20 0 -20 18 -1 40 11 13 20 27 20 31 0 19 75 18 110 -2z m-19 -65 c-39 -16
-41 -44 -4 -44 25 0 26 -1 8 -14 -16 -12 -22 -12 -41 1 -20 13 -23 12 -27 -4
-4 -14 -5 -13 -6 5 -1 13 -7 22 -17 22 -13 0 -11 5 7 24 18 19 33 24 67 23
l43 0 -30 -13z m-462 -20 c10 -23 9 -25 -11 -22 -15 2 -24 11 -26 26 -5 31 22
29 37 -4z m761 -20 c0 -2 -7 -4 -15 -4 -8 0 -15 4 -15 10 0 5 7 7 15 4 8 -4
15 -8 15 -10z m-381 -41 c2 -2 -5 -3 -17 -3 -14 0 -22 6 -22 16 0 14 3 15 18
3 9 -7 19 -15 21 -16z m306 9 c-3 -3 -11 0 -18 7 -9 10 -8 11 6 5 10 -3 15 -9
12 -12z m-251 -34 c11 -12 25 -40 31 -60 2 -5 3 -9 4 -10 1 -2 4 -17 6 -34 4
-26 1 -33 -17 -37 -21 -6 -21 -7 -5 -25 23 -25 24 -50 1 -31 -14 11 -18 10
-31 -6 -13 -17 -15 -17 -10 -2 7 20 -5 22 -36 6 -16 -9 -22 -9 -25 0 -2 6 -15
11 -28 11 -17 0 -24 -5 -24 -20 0 -11 6 -23 14 -26 8 -3 17 -12 20 -20 4 -11
2 -12 -15 -1 -17 10 -22 9 -35 -7 -12 -18 -13 -12 -10 49 2 46 8 72 18 79 9 6
17 20 20 31 2 15 10 19 31 17 26 -3 28 -1 25 24 -2 18 4 36 17 50 24 26 32 28
49 12z m277 -25 c13 -17 13 -17 -6 -3 -11 8 -22 16 -24 17 -2 2 0 3 6 3 6 0
17 -8 24 -17z m-386 -13 c3 -5 1 -10 -4 -10 -6 0 -11 5 -11 10 0 6 2 10 4 10
3 0 8 -4 11 -10z m360 -18 c-3 -3 -11 0 -18 7 -9 10 -8 11 6 5 10 -3 15 -9 12
-12z m56 -4 c-8 -23 -41 -38 -41 -19 0 6 8 8 18 4 9 -3 14 -3 10 2 -4 4 -3 14
3 22 16 19 20 16 10 -9z m-161 -58 c-13 -9 -13 -10 0 -10 13 0 13 -2 0 -9 -8
-6 -18 -7 -23 -4 -10 6 11 33 27 33 6 0 4 -5 -4 -10z m-773 -52 c-3 -7 -5 -2
-5 12 0 14 2 19 5 13 2 -7 2 -19 0 -25z m683 -68 c0 -5 -5 -10 -11 -10 -5 0
-7 5 -4 10 3 6 8 10 11 10 2 0 4 -4 4 -10z m333 -57 c-7 -2 -19 -2 -25 0 -7 3
-2 5 12 5 14 0 19 -2 13 -5z m-962 -93 c-9 -9 -18 -15 -20 -13 -3 2 1 9 7 15
7 7 12 21 13 33 0 19 1 19 8 1 5 -13 2 -25 -8 -36z m179 34 c0 -10 6 -14 15
-10 18 7 19 -1 2 -18 -10 -11 -15 -10 -25 1 -7 7 -10 17 -7 22 3 5 -3 12 -12
14 -14 4 -13 5 5 6 14 1 22 -5 22 -15z m-66 -8 c-3 -8 -12 -17 -20 -20 -11 -4
-12 -2 -1 14 14 23 29 27 21 6z m-58 -5 c-4 -5 -1 -11 5 -13 6 -2 0 -9 -14
-15 -25 -12 -26 -11 -15 12 6 14 15 25 20 25 5 0 7 -4 4 -9z m239 -21 c-3 -5
-1 -11 5 -15 5 -3 10 -1 10 4 0 6 5 11 11 11 8 0 8 -4 -1 -14 -15 -19 -39 -10
-37 14 1 10 5 16 9 14 5 -3 6 -9 3 -14z m91 -5 c1 -8 -3 -18 -8 -22 -7 -3 -8
-1 -4 5 4 7 1 12 -6 13 -10 0 -10 2 0 6 6 2 9 10 5 16 -3 7 -2 8 2 4 5 -4 10
-14 11 -22z m189 -13 c-3 -3 -11 0 -18 7 -9 10 -8 11 6 5 10 -3 15 -9 12 -12z
m-369 -7 c-8 -8 -18 -15 -22 -15 -3 0 -1 7 6 15 7 8 17 15 22 15 5 0 3 -7 -6
-15z m409 -5 c3 -6 -1 -7 -9 -4 -18 7 -21 14 -7 14 6 0 13 -4 16 -10z m-555
-126 c0 -8 -4 -12 -10 -9 -5 3 -10 10 -10 16 0 5 5 9 10 9 6 0 10 -7 10 -16z
m220 -24 c0 -5 -4 -10 -10 -10 -5 0 -10 5 -10 10 0 6 5 10 10 10 6 0 10 -4 10
-10z m-210 -120 c0 -5 -7 -7 -15 -4 -8 4 -15 8 -15 10 0 2 7 4 15 4 8 0 15 -4
15 -10z m410 -14 c0 -2 -11 -6 -25 -8 -13 -3 -22 -1 -19 3 5 9 44 13 44 5z
m-6 -42 c10 -27 7 -34 -16 -34 -32 0 -14 -12 24 -15 18 -2 40 -3 48 -4 13 -1
13 -2 0 -11 -9 -6 -17 -5 -22 3 -4 6 -10 8 -14 4 -4 -3 -2 -13 5 -21 9 -11 8
-15 -5 -20 -14 -5 -14 -9 -3 -23 12 -15 12 -16 -4 -10 -10 4 -29 7 -41 7 -19
0 -22 4 -18 25 2 14 0 25 -6 25 -6 0 -10 13 -9 30 2 25 5 28 24 24 18 -5 21
-2 16 15 -6 24 12 29 21 5z m101 -45 c0 -26 -4 -39 -14 -39 -11 0 -11 -3 0
-17 7 -10 10 -15 5 -11 -5 4 -17 3 -26 -2 -13 -7 -20 -6 -24 5 -5 15 18 45 36
45 6 0 6 6 -2 15 -10 12 -9 16 4 21 11 4 15 13 11 22 -3 9 -2 13 2 8 4 -4 8
-25 8 -47z m-2275 -4 c0 -25 -4 -35 -16 -35 -8 0 -12 5 -8 11 4 8 1 8 -12 1
-17 -9 -19 -6 -19 24 0 30 3 34 28 34 24 0 27 -3 27 -35z m1928 -121 l2 -107
-19 24 c-27 31 -26 9 0 -44 30 -62 34 -96 12 -113 -14 -10 -14 -13 -3 -14 11
0 11 -3 2 -12 -10 -10 -14 -10 -21 0 -4 7 -15 10 -23 7 -17 -7 -40 42 -58 119
-5 23 -12 51 -16 61 -5 13 -4 16 5 11 8 -5 14 -1 18 13 3 12 13 21 24 21 11 0
19 7 19 16 0 10 -7 14 -22 12 -11 -2 -23 3 -26 11 -3 8 0 11 7 7 6 -4 18 -1
26 7 8 9 20 18 27 21 10 5 10 7 0 12 -10 5 -8 12 9 30 12 13 25 24 28 24 3 0
7 -48 9 -106z m85 91 c-3 -9 -8 -14 -10 -11 -3 3 -2 9 2 15 9 16 15 13 8 -4z
m57 -25 c0 -11 -4 -20 -9 -20 -7 0 -8 17 -2 38 4 10 11 -2 11 -18z m-90 -40
c16 0 17 -4 8 -32 -6 -18 -12 -45 -15 -60 -10 -54 -20 -27 -21 55 0 45 2 72 5
60 3 -14 12 -23 23 -23z m60 26 c0 -2 -7 -9 -15 -16 -13 -11 -14 -10 -9 4 5
14 24 23 24 12z m120 -36 c0 -5 -2 -10 -4 -10 -3 0 -8 5 -11 10 -3 6 -1 10 4
10 6 0 11 -4 11 -10z m103 -10 c-6 -23 -16 -25 -46 -8 l-22 12 25 7 c42 12 48
10 43 -11z m-118 -21 c-7 -10 -35 -1 -35 11 0 5 9 6 20 3 11 -3 17 -9 15 -14z
m-138 -11 c-3 -8 -6 -5 -6 6 -1 11 2 17 5 13 3 -3 4 -12 1 -19z m43 -9 c0 -6
-4 -7 -10 -4 -5 3 -10 11 -10 16 0 6 5 7 10 4 6 -3 10 -11 10 -16z m134 12 c3
-5 -1 -12 -10 -15 -19 -7 -9 -26 14 -26 12 0 18 -9 19 -28 2 -28 1 -29 -32
-18 -43 13 -50 30 -28 67 18 30 28 35 37 20z m221 -11 c3 -5 1 -10 -4 -10 -6
0 -11 5 -11 10 0 6 2 10 4 10 3 0 8 -4 11 -10z m-28 -22 c-3 -8 -6 -5 -6 6 -1
11 2 17 5 13 3 -3 4 -12 1 -19z m-1380 -14 c-3 -3 -12 -4 -19 -1 -8 3 -5 6 6
6 11 1 17 -2 13 -5z m1063 -4 c0 -5 -2 -10 -4 -10 -3 0 -8 5 -11 10 -3 6 -1
10 4 10 6 0 11 -4 11 -10z m-71 -48 c-2 -15 0 -32 4 -39 4 -6 3 -14 -2 -17
-13 -8 -19 14 -14 52 6 39 16 43 12 4z m341 18 c0 -5 -11 -53 -25 -107 -46
-175 -45 -121 1 95 4 21 24 32 24 12z m-525 -40 c3 -5 1 -10 -4 -10 -6 0 -11
5 -11 10 0 6 2 10 4 10 3 0 8 -4 11 -10z m389 -5 c-4 -8 -10 -12 -15 -9 -11 6
-2 24 11 24 5 0 7 -7 4 -15z m-71 -157 c-6 -7 -13 -22 -16 -33 -3 -13 -5 -10
-6 12 0 17 5 33 12 36 17 6 22 0 10 -15z m31 -27 c-9 -11 -21 13 -16 32 6 22
6 22 12 -3 4 -14 6 -27 4 -29z m-218 2 c-11 -11 -17 4 -9 23 7 18 8 18 11 1 2
-10 1 -21 -2 -24z m78 22 c-4 -8 -10 -15 -14 -15 -4 0 -11 -10 -15 -22 -4 -15
-8 -18 -12 -10 -3 7 5 24 18 38 26 28 31 30 23 9z m36 -56 c0 -5 -5 -7 -11 -3
-6 3 -15 0 -20 -7 -4 -7 -11 -10 -14 -7 -11 11 5 28 26 28 10 0 19 -5 19 -11z
m2567 5 c-3 -3 -12 -4 -19 -1 -8 3 -5 6 6 6 11 1 17 -2 13 -5z m-2665 -73 c4
-69 1 -69 -24 1 -22 63 -22 58 1 58 16 0 20 -9 23 -59z m115 -3 c-2 -13 -4 -5
-4 17 -1 22 1 32 4 23 2 -10 2 -28 0 -40z m2893 42 c0 -5 -5 -10 -11 -10 -5 0
-7 5 -4 10 3 6 8 10 11 10 2 0 4 -4 4 -10z m-2945 -20 c7 0 16 6 19 13 3 6 3
2 1 -10 -3 -12 -1 -24 5 -28 7 -4 9 -17 6 -30 -3 -12 -8 -98 -11 -190 -6 -167
-16 -230 -28 -169 -4 16 -14 116 -23 222 -15 166 -15 195 -3 203 8 5 15 4 17
-1 2 -6 10 -10 17 -10z m-2028 -223 c-2 -23 -3 -1 -3 48 0 50 1 68 3 42 2 -26
2 -67 0 -90z m2498 -107 c3 -5 2 -10 -4 -10 -5 0 -13 5 -16 10 -3 6 -2 10 4
10 5 0 13 -4 16 -10z m59 -9 c4 -5 -3 -7 -14 -4 -23 6 -26 13 -6 13 8 0 17 -4
20 -9z m-2684 -31 c8 -5 11 -12 8 -16 -4 -3 -14 1 -23 10 -18 17 -9 21 15 6z
m40 -6 c0 -8 -4 -12 -10 -9 -5 3 -10 10 -10 16 0 5 5 9 10 9 6 0 10 -7 10 -16z
m3323 -11 c-7 -2 -21 -2 -30 0 -10 3 -4 5 12 5 17 0 24 -2 18 -5z m-3257 -12
c-4 -5 0 -12 6 -14 8 -3 6 -6 -4 -6 -18 -1 -24 10 -11 22 9 10 15 8 9 -2z
m3179 2 c-11 -3 -24 -9 -29 -14 -6 -5 -25 -9 -43 -9 -18 0 -33 -4 -33 -10 0
-5 5 -10 11 -10 5 0 7 -5 3 -11 -5 -8 -9 -7 -15 4 -5 8 -23 19 -41 22 -24 6
-35 3 -45 -11 -10 -13 -13 -14 -13 -3 0 11 -2 11 -9 1 -6 -10 -11 -9 -22 4
-13 16 -11 17 14 12 15 -3 27 -2 27 2 0 5 33 12 73 18 75 10 157 13 122 5z
m-3240 -13 c3 -5 -1 -10 -9 -10 -9 0 -16 5 -16 10 0 6 4 10 9 10 6 0 13 -4 16
-10z m2402 -22 c-3 -8 -6 -5 -6 6 -1 11 2 17 5 13 3 -3 4 -12 1 -19z m698 -15
c20 -15 19 -15 -5 -9 -14 3 -29 6 -33 6 -5 0 -5 5 -2 10 8 14 16 12 40 -7z
m185 -61 c0 -20 -4 -31 -10 -27 -5 3 -10 -1 -10 -9 0 -9 -4 -16 -10 -16 -5 0
-10 8 -10 17 0 9 -3 13 -7 10 -3 -4 -15 0 -25 10 -12 10 -18 12 -18 4 0 -7 -5
-9 -10 -6 -15 9 18 38 35 31 8 -3 15 -1 15 4 0 6 -5 10 -12 10 -18 0 3 17 27
22 25 5 35 -8 35 -50z m-1095 28 c3 -5 -3 -10 -15 -10 -12 0 -18 5 -15 10 3 6
10 10 15 10 5 0 12 -4 15 -10z m959 -24 c-3 -9 -10 -13 -15 -10 -5 3 -3 11 4
19 15 16 19 13 11 -9z m-354 -36 c8 -5 11 -10 5 -10 -5 0 -17 5 -25 10 -8 5
-10 10 -5 10 6 0 17 -5 25 -10z m-546 -104 c-6 -16 0 -17 57 -15 35 1 74 8 87
16 14 8 28 11 38 5 12 -7 11 -10 -9 -19 -23 -11 -130 -36 -154 -36 -7 0 -13
-4 -13 -9 0 -5 -5 -6 -10 -3 -21 13 -33 -54 -35 -185 -1 -74 1 -126 6 -115 7
19 8 19 8 -2 1 -12 -5 -28 -12 -35 -8 -7 -12 -20 -10 -28 3 -12 2 -11 -6 1 -6
10 -9 67 -7 145 3 71 5 179 5 241 l1 112 30 -28 c21 -19 29 -33 24 -45z m531
-65 c-3 -5 3 -12 12 -14 10 -2 5 -3 -10 -1 -16 2 -37 -1 -48 -7 -15 -7 -19 -7
-17 3 2 7 14 16 28 19 38 10 42 10 35 0z m-526 -46 c0 -5 -4 -3 -9 5 -5 8 -9
22 -9 30 0 16 17 -16 18 -35z m661 35 c0 -5 -2 -10 -4 -10 -3 0 -8 5 -11 10
-3 6 -1 10 4 10 6 0 11 -4 11 -10z m115 -19 c0 -38 -12 -49 -28 -27 -14 19
-47 12 -47 -10 0 -8 3 -13 8 -13 4 1 14 1 22 0 13 -1 13 -2 0 -11 -10 -6 -20
-4 -32 7 -26 23 -23 29 23 47 22 9 37 21 34 26 -3 6 0 10 7 10 8 0 13 -12 13
-29z m255 -6 c17 -9 35 -13 40 -10 6 3 10 1 10 -6 0 -6 -8 -9 -20 -6 -11 3
-20 2 -20 -2 0 -8 -68 -6 -98 3 -12 4 -20 12 -17 17 8 11 -2 11 -42 0 -22 -7
-33 -6 -36 3 -8 19 146 20 183 1z m81 8 c-11 -5 -11 -7 0 -14 11 -7 10 -9 -3
-9 -10 0 -18 5 -18 11 0 6 -9 9 -20 6 -11 -3 -23 -1 -26 4 -3 5 14 9 38 8 24
0 37 -3 29 -6z m80 -7 c5 3 9 0 9 -7 0 -7 -9 -9 -22 -5 -13 3 -29 6 -35 6 -7
0 -13 4 -13 10 0 6 9 6 26 0 14 -6 30 -8 35 -4z m-754 -2 c-3 -3 -12 -4 -19
-1 -8 3 -5 6 6 6 11 1 17 -2 13 -5z m68 -4 c3 -6 -1 -7 -9 -4 -18 7 -21 14 -7
14 6 0 13 -4 16 -10z m-516 -43 c1 -5 -2 -6 -7 -4 -4 3 -8 -16 -9 -41 l-1 -47
13 30 14 30 -6 -28 c-3 -16 -11 -47 -18 -70 -12 -40 -13 -37 -10 53 3 121 4
131 15 105 5 -11 9 -24 9 -28z m661 33 c0 -13 -11 -13 -30 0 -12 8 -11 10 8
10 12 0 22 -4 22 -10z m-433 -6 c-3 -3 -12 -4 -19 -1 -8 3 -5 6 6 6 11 1 17
-2 13 -5z m683 -4 c0 -5 -4 -10 -10 -10 -5 0 -10 5 -10 10 0 6 5 10 10 10 6 0
10 -4 10 -10z m-603 -17 c29 -9 53 -20 53 -24 0 -4 -27 1 -60 13 -33 11 -60
22 -60 24 0 7 11 5 67 -13z m643 1 c0 -2 -7 -4 -15 -4 -8 0 -15 4 -15 10 0 5
7 7 15 4 8 -4 15 -8 15 -10z m130 2 c0 -3 -4 -8 -10 -11 -5 -3 -10 -1 -10 4 0
6 5 11 10 11 6 0 10 -2 10 -4z m223 -15 c6 -6 -6 -17 -33 -31 -43 -22 -62 -22
-36 -1 13 11 34 18 60 20 28 3 -9 11 -70 17 -38 3 -71 9 -74 11 -9 10 143 -6
153 -16z m67 2 c0 -5 -11 -8 -24 -8 -13 0 -22 3 -19 8 2 4 13 7 24 7 10 0 19
-3 19 -7z m240 -2 c0 -12 -39 -21 -45 -11 -3 5 3 11 12 13 29 8 33 7 33 -2z
m150 -1 c0 -5 -14 -7 -31 -5 -44 5 -45 12 -4 13 19 1 35 -3 35 -8z m-2645 -10
c8 -13 -5 -13 -25 0 -13 8 -13 10 2 10 9 0 20 -4 23 -10z m2095 -3 c0 -9 -10
-12 -32 -9 -27 4 -30 2 -24 -14 6 -15 5 -17 -5 -6 -15 14 -5 28 26 35 33 8 35
8 35 -6z m-330 -1 c0 -3 -4 -8 -10 -11 -5 -3 -10 -1 -10 4 0 6 5 11 10 11 6 0
10 -2 10 -4z m210 0 c0 -2 -7 -7 -16 -10 -8 -3 -12 -2 -9 4 6 10 25 14 25 6z
m457 -2 c-3 -3 -12 -4 -19 -1 -8 3 -5 6 6 6 11 1 17 -2 13 -5z m126 -1 c-7 -2
-19 -2 -25 0 -7 3 -2 5 12 5 14 0 19 -2 13 -5z m147 -23 c8 -5 10 -10 4 -10
-7 0 -22 9 -35 21 -19 16 -20 18 -4 10 11 -6 27 -15 35 -21z m-770 16 c0 -2
-7 -7 -16 -10 -8 -3 -12 -2 -9 4 6 10 25 14 25 6z m460 -12 c0 -2 -7 -4 -15
-4 -8 0 -15 4 -15 10 0 5 7 7 15 4 8 -4 15 -8 15 -10z m257 -1 c3 -7 -3 -9
-17 -6 -29 8 -37 25 -9 21 12 -1 24 -8 26 -15z m108 7 c3 -5 1 -10 -4 -10 -6
0 -11 5 -11 10 0 6 2 10 4 10 3 0 8 -4 11 -10z m-765 -4 c0 -2 -7 -7 -16 -10
-8 -3 -12 -2 -9 4 6 10 25 14 25 6z m190 -6 c-10 -6 -11 -10 -2 -10 6 0 12 -5
12 -11 0 -5 -5 -7 -10 -4 -6 4 -16 2 -23 -4 -8 -6 -18 -6 -27 -1 -13 8 -13 10
1 10 9 0 22 7 29 15 7 8 18 15 24 15 6 0 4 -5 -4 -10z m117 4 c-3 -3 -12 -4
-19 -1 -8 3 -5 6 6 6 11 1 17 -2 13 -5z m283 -4 c0 -5 -4 -10 -10 -10 -5 0
-10 5 -10 10 0 6 5 10 10 10 6 0 10 -4 10 -10z m-570 -10 c0 -5 -5 -10 -11
-10 -5 0 -7 5 -4 10 3 6 8 10 11 10 2 0 4 -4 4 -10z m55 0 c3 -5 1 -10 -4 -10
-6 0 -11 5 -11 10 0 6 2 10 4 10 3 0 8 -4 11 -10z m265 2 c0 -13 -12 -22 -22
-16 -10 6 -1 24 13 24 5 0 9 -4 9 -8z m560 -1 c0 -6 -4 -13 -10 -16 -5 -3 -10
1 -10 9 0 9 5 16 10 16 6 0 10 -4 10 -9z m-600 -11 c0 -4 -13 -10 -30 -12 -27
-4 -37 1 -26 13 8 8 56 7 56 -1z m260 6 c0 -11 -19 -15 -25 -6 -3 5 1 10 9 10
9 0 16 -2 16 -4z m-2905 -16 c3 -5 -1 -10 -10 -10 -9 0 -13 5 -10 10 3 6 8 10
10 10 2 0 7 -4 10 -10z m3440 0 c7 -12 -2 -12 -30 0 -19 8 -19 9 2 9 12 1 25
-3 28 -9z m-665 -4 c0 -3 -4 -8 -10 -11 -5 -3 -10 -1 -10 4 0 6 5 11 10 11 6
0 10 -2 10 -4z m765 -14 c-3 -3 -11 0 -18 7 -9 10 -8 11 6 5 10 -3 15 -9 12
-12z m-969 1 c-8 -8 -56 -11 -51 -3 3 4 16 8 30 8 14 0 24 -3 21 -5z m921 -15
c-3 -8 -6 -5 -6 6 -1 11 2 17 5 13 3 -3 4 -12 1 -19z m-607 -4 c0 -8 -4 -12
-10 -9 -5 3 -10 2 -10 -4 0 -5 5 -11 12 -13 8 -3 8 -9 -1 -24 -9 -13 -11 -14
-7 -2 2 9 -2 19 -10 22 -15 6 -15 27 1 38 16 12 25 9 25 -8z m55 6 c3 -5 12
-7 19 -4 7 3 16 -2 19 -10 4 -9 1 -16 -6 -16 -8 0 -6 -4 3 -10 17 -11 10 -13
-14 -4 -9 3 -14 10 -11 14 3 4 -10 15 -28 24 -27 13 -28 16 -10 16 12 0 24 -4
28 -10z m-228 -26 c-3 -3 -12 -4 -19 -1 -8 3 -5 6 6 6 11 1 17 -2 13 -5z m33
-9 c10 -12 10 -15 -2 -15 -8 0 -15 7 -15 15 0 8 1 15 2 15 2 0 8 -7 15 -15z
m40 5 c0 -5 -4 -10 -10 -10 -5 0 -10 5 -10 10 0 6 5 10 10 10 6 0 10 -4 10
-10z m-170 -20 c0 -5 -2 -10 -4 -10 -3 0 -8 5 -11 10 -3 6 -1 10 4 10 6 0 11
-4 11 -10z m100 -6 c0 -8 -5 -12 -10 -9 -6 4 -8 11 -5 16 9 14 15 11 15 -7z
m90 6 c0 -5 -9 -14 -20 -20 -23 -12 -26 -6 -7 15 14 17 27 19 27 5z m440 0 c0
-11 -30 -21 -41 -14 -16 10 -9 19 16 20 14 1 25 -2 25 -6z m475 0 c6 -1 1 -5
-10 -9 -11 -5 -25 -4 -32 1 -16 13 -17 -5 -3 -33 8 -15 7 -19 -3 -19 -14 0
-27 28 -27 57 0 12 9 12 75 3z m-1180 -10 c-3 -5 -12 -10 -18 -10 -7 0 -6 4 3
10 19 12 23 12 15 0z m1454 6 c-2 -2 -22 -6 -44 -9 -28 -5 -34 -4 -20 3 19 8
73 14 64 6z m-1320 -17 c6 9 9 6 9 -12 0 -23 -2 -24 -15 -11 -8 8 -19 12 -24
9 -10 -7 -12 8 -2 18 4 4 10 2 15 -5 6 -10 10 -10 17 1z m1388 -9 c3 -10 2
-11 -4 -4 -4 7 -19 14 -33 17 -22 4 -21 5 4 4 17 -1 31 -9 33 -17z m-1097 0
c0 -5 8 -10 18 -11 13 0 14 -2 2 -6 -8 -3 -18 -11 -22 -17 -5 -7 -8 -7 -9 -1
0 6 -2 18 -4 28 -2 9 1 17 6 17 5 0 9 -4 9 -10z m815 0 l20 -9 -20 0 c-11 0
-27 4 -35 9 -13 9 -13 10 0 9 8 0 24 -4 35 -9z m-3488 -6 c-3 -3 -12 -4 -19
-1 -8 3 -5 6 6 6 11 1 17 -2 13 -5z m2593 -14 c0 -5 -5 -10 -11 -10 -5 0 -7 5
-4 10 3 6 8 10 11 10 2 0 4 -4 4 -10z m45 0 c3 -5 -1 -10 -9 -10 -9 0 -16 5
-16 10 0 6 4 10 9 10 6 0 13 -4 16 -10z m112 4 c-3 -3 -12 -4 -19 -1 -8 3 -5
6 6 6 11 1 17 -2 13 -5z m-2710 -10 c-3 -3 -12 -4 -19 -1 -8 3 -5 6 6 6 11 1
17 -2 13 -5z m91 -29 c31 -11 64 -35 49 -35 -14 0 -77 29 -100 46 -19 14 -19
15 -2 9 11 -4 35 -13 53 -20z m2220 0 c1 -13 -2 -26 -6 -29 -4 -2 -8 9 -9 25
-1 16 1 29 5 29 4 0 9 -11 10 -25z m435 9 c-5 -14 -3 -15 14 -6 14 8 23 8 31
0 19 -19 14 -27 -25 -45 -21 -9 -42 -19 -46 -21 -5 -2 -1 7 8 22 17 25 17 26
-4 26 -12 0 -21 -6 -21 -15 0 -9 -6 -12 -16 -8 -9 3 -20 0 -25 -8 -6 -9 -9
-10 -9 -2 0 7 16 19 35 28 19 9 39 23 46 31 15 19 20 18 12 -2z m297 6 c0 -5
-2 -10 -4 -10 -3 0 -8 5 -11 10 -3 6 -1 10 4 10 6 0 11 -4 11 -10z m-401 -36
c2 -2 -8 -4 -22 -4 -18 0 -27 5 -27 15 0 13 4 14 23 4 12 -6 24 -13 26 -15z
m321 18 c0 -13 -59 -44 -70 -37 -16 10 -1 25 17 18 10 -4 14 -2 10 5 -6 9 6
16 36 21 4 0 7 -3 7 -7z m367 -8 c-3 -3 -12 -4 -19 -1 -8 3 -5 6 6 6 11 1 17
-2 13 -5z m-996 -27 c-10 -9 -11 -8 -5 6 3 10 9 15 12 12 3 -3 0 -11 -7 -18z
m-2126 3 c3 -6 -1 -7 -9 -4 -18 7 -21 14 -7 14 6 0 13 -4 16 -10z m2205 -6 c0
-8 -5 -12 -10 -9 -6 4 -8 11 -5 16 9 14 15 11 15 -7z m60 12 c0 -2 -9 -6 -20
-9 -11 -3 -20 -1 -20 4 0 5 9 9 20 9 11 0 20 -2 20 -4z m-1868 -31 c5 -8 14
-15 21 -15 7 0 6 4 -3 10 -25 16 -1 11 45 -10 24 -11 52 -17 62 -14 15 5 16 4
3 -5 -12 -8 -8 -11 20 -12 27 -1 29 -3 11 -6 -56 -11 -221 41 -221 69 0 14 53
0 62 -17z m1772 10 c-4 -8 -8 -15 -10 -15 -2 0 -4 7 -4 15 0 8 4 15 10 15 5 0
7 -7 4 -15z m1183 9 c-3 -3 -12 -4 -19 -1 -8 3 -5 6 6 6 11 1 17 -2 13 -5z
m70 -27 c3 -6 1 -7 -5 -3 -6 4 -21 2 -33 -5 -15 -8 -19 -8 -15 0 10 16 1 14
-36 -9 -18 -11 -27 -20 -19 -20 8 0 12 -3 8 -6 -7 -8 -47 5 -47 15 0 4 10 13
23 20 21 11 21 11 -6 8 -15 -3 -30 0 -34 6 -4 6 11 8 43 4 27 -4 55 -3 63 2
15 10 48 3 58 -12z m-690 7 c-3 -3 -12 -4 -19 -1 -8 3 -5 6 6 6 11 1 17 -2 13
-5z m-107 -13 c0 -5 -6 -11 -14 -14 -19 -8 -57 3 -50 14 7 12 64 12 64 0z m70
0 c0 -9 -60 -34 -67 -27 -3 2 55 35 65 36 1 0 2 -4 2 -9z m820 5 c0 -2 -11
-11 -25 -20 -14 -9 -25 -13 -25 -8 0 5 10 14 23 20 27 13 27 13 27 8z m-2680
-66 c9 15 30 5 30 -15 0 -8 5 -17 12 -21 8 -5 9 -2 5 10 -5 12 -3 16 5 13 7
-2 12 -10 10 -16 -1 -6 9 -16 23 -21 14 -5 25 -12 25 -15 0 -5 -68 19 -168 60
-48 19 -53 24 -32 27 14 2 38 -5 54 -16 22 -14 30 -16 36 -6z m2617 24 c-3 -3
-12 -4 -19 -1 -8 3 -5 6 6 6 11 1 17 -2 13 -5z m-602 -13 c3 -5 0 -13 -6 -17
-8 -5 -9 -3 -4 6 6 10 4 12 -9 7 -10 -4 -15 -3 -11 3 8 13 22 13 30 1z m-2498
-43 c-3 -8 -6 -5 -6 6 -1 11 2 17 5 13 3 -3 4 -12 1 -19z m2464 -1 c-10 -9
-11 -8 -5 6 3 10 9 15 12 12 3 -3 0 -11 -7 -18z m-51 -27 c0 -5 -5 -10 -11
-10 -5 0 -7 5 -4 10 3 6 8 10 11 10 2 0 4 -4 4 -10z m310 -10 c-10 -6 -11 -10
-2 -10 6 0 12 -4 12 -10 0 -5 -7 -10 -15 -10 -8 0 -15 2 -15 4 0 2 -3 11 -6
20 -5 12 0 16 17 16 19 0 21 -2 9 -10z m64 -41 c-3 -6 0 -15 7 -20 7 -4 10
-12 5 -16 -5 -4 -11 -2 -13 5 -3 6 -14 12 -26 12 -21 1 -21 1 3 15 31 18 33
18 24 4z m61 -49 c8 -13 -5 -13 -25 0 -13 8 -13 10 2 10 9 0 20 -4 23 -10z
m-67 -36 c-12 -12 -17 -13 -23 -3 -5 7 -4 10 2 6 6 -4 14 0 17 9 4 9 9 14 13
10 4 -3 0 -14 -9 -22z m172 10 c0 -2 -9 -4 -21 -4 -11 0 -18 4 -14 10 5 8 35
3 35 -6z m160 -44 c12 -8 11 -10 -7 -10 -13 0 -23 5 -23 10 0 13 11 13 30 0z
m-2053 -212 c-3 -8 -6 -5 -6 6 -1 11 2 17 5 13 3 -3 4 -12 1 -19z m63 -23 c16
-19 0 -19 -26 0 -16 12 -16 14 -3 15 9 0 22 -7 29 -15z m15 -65 c-3 -5 -12
-10 -18 -10 -7 0 -6 4 3 10 19 12 23 12 15 0z m19 -25 c-7 -16 -24 -21 -24 -6
0 8 7 13 27 20 1 1 0 -6 -3 -14z m-4 -65 c0 -5 -5 -10 -11 -10 -5 0 -7 5 -4
10 3 6 8 10 11 10 2 0 4 -4 4 -10z m27 -49 c0 -11 -5 -18 -9 -15 -4 3 -5 11
-1 19 7 21 12 19 10 -4z"/>
<path d="M4500 3455 c0 -8 4 -15 10 -15 5 0 7 7 4 15 -4 8 -8 15 -10 15 -2 0
-4 -7 -4 -15z"/>
<path d="M5600 1290 c0 -5 5 -10 11 -10 5 0 7 5 4 10 -3 6 -8 10 -11 10 -2 0
-4 -4 -4 -10z"/>
<path d="M5820 1289 c-32 -6 -31 -7 13 -6 26 0 47 1 47 3 0 7 -30 9 -60 3z"/>
<path d="M4475 4130 c-8 -13 15 -13 35 0 12 8 11 10 -7 10 -12 0 -25 -4 -28
-10z"/>
<path d="M4790 3904 c0 -3 5 -14 10 -25 16 -28 32 -23 18 6 -10 22 -28 35 -28
19z"/>
<path d="M5437 3727 c-4 -11 -5 -23 -1 -28 9 -16 34 -10 34 9 0 14 -2 14 -9 3
-7 -11 -10 -9 -13 10 -3 21 -4 22 -11 6z"/>
<path d="M3585 3702 c-13 -5 -21 -18 -23 -37 -4 -32 4 -29 22 7 7 13 25 26 41
29 26 6 27 7 5 7 -14 0 -34 -3 -45 -6z"/>
<path d="M5500 3700 c0 -5 3 -9 8 -8 4 0 15 -2 25 -7 23 -10 36 3 17 15 -20
13 -50 13 -50 0z"/>
<path d="M2990 3593 c0 -43 -3 -141 -7 -218 l-6 -140 -46 -2 c-25 -1 -81 -7
-123 -14 -66 -10 -77 -14 -75 -30 4 -24 17 -37 17 -16 0 11 5 14 16 10 13 -5
13 -7 2 -14 -9 -6 -2 -9 20 -9 17 0 32 -4 32 -9 0 -5 15 -12 33 -15 l32 -7
-24 -13 c-15 -9 -20 -16 -12 -20 6 -4 11 -3 11 2 0 5 12 14 26 20 14 7 23 8
19 2 -6 -9 2 -11 65 -14 38 -2 54 -15 39 -32 -9 -12 -4 -14 32 -16 37 -1 39
-2 12 -5 -36 -5 -38 -9 -23 -47 7 -20 6 -27 -8 -35 -12 -8 3 -11 58 -12 41 -1
79 -1 84 0 5 1 6 -5 3 -14 -4 -8 -2 -15 3 -15 6 0 10 -5 10 -10 0 -7 -6 -7
-19 0 -11 5 -40 10 -64 10 -37 0 -46 -4 -55 -25 -7 -14 -12 -28 -12 -30 0 -2
28 -6 63 -8 34 -3 71 -7 82 -8 55 -5 61 0 74 51 8 31 18 50 27 50 19 0 8 -49
-15 -68 -9 -8 -10 -10 -2 -6 14 7 13 2 -14 -76 -10 -30 -13 -32 -18 -15 -6 18
-14 20 -94 17 -63 -3 -90 -8 -96 -18 -5 -8 -24 -14 -46 -14 -42 0 -51 -11 -51
-61 l0 -29 -92 0 c-51 0 -98 -4 -105 -8 -6 -4 51 -7 127 -7 76 0 138 4 137 9
-1 5 4 11 12 14 10 3 12 0 8 -12 -6 -14 8 -16 132 -16 76 0 159 3 185 6 45 7
46 8 46 41 0 20 -4 32 -10 28 -5 -3 -10 -1 -10 4 0 6 5 11 10 11 17 0 11 67
-7 86 -11 11 -18 34 -18 62 -1 25 -6 47 -11 49 -12 4 -5 83 7 83 5 0 9 7 9 15
0 8 -5 15 -12 15 -9 0 -9 3 0 12 8 8 8 15 1 24 -11 13 -7 15 56 27 13 2 7 6
-19 12 -26 5 -40 4 -46 -4 -5 -9 -47 -11 -151 -9 -143 3 -144 3 -142 26 2 14
-3 22 -13 22 -13 0 -15 8 -12 40 2 22 0 40 -4 40 -5 0 -8 38 -8 85 0 47 4 85
8 85 11 0 15 211 5 225 -5 6 -14 11 -20 13 -10 1 -13 -19 -13 -75z m204 -697
c-3 -9 -10 -16 -15 -16 -5 0 -4 9 3 20 14 22 21 20 12 -4z m36 0 c0 -3 -4 -8
-10 -11 -5 -3 -10 -1 -10 4 0 6 5 11 10 11 6 0 10 -2 10 -4z m-140 -106 c0 -5
-4 -10 -10 -10 -5 0 -10 5 -10 10 0 6 5 10 10 10 6 0 10 -4 10 -10z"/>
<path d="M5466 3658 c3 -5 10 -6 15 -3 13 9 11 12 -6 12 -8 0 -12 -4 -9 -9z"/>
<path d="M5120 3649 c0 -5 5 -7 10 -4 6 3 10 8 10 11 0 2 -4 4 -10 4 -5 0 -10
-5 -10 -11z"/>
<path d="M5495 3651 c-6 -11 13 -26 22 -17 4 3 1 6 -6 6 -7 0 -9 5 -6 10 3 6
4 10 1 10 -3 0 -7 -4 -11 -9z"/>
<path d="M930 3641 c0 -7 -5 -9 -12 -5 -7 5 -8 3 -3 -5 5 -9 10 -10 18 -2 6 6
8 14 4 18 -4 3 -7 1 -7 -6z"/>
<path d="M929 3588 c16 -22 -1 -50 -25 -41 -8 3 -14 -1 -14 -10 0 -21 40 -18
41 3 0 10 3 9 9 -5 11 -26 12 -44 1 -26 -5 8 -11 9 -15 3 -10 -17 12 -24 33
-10 16 10 23 10 33 0 9 -9 9 -12 -1 -12 -16 0 -42 -26 -34 -34 4 -3 -2 -6 -12
-6 -18 0 -18 -1 -1 -13 16 -12 17 -16 5 -35 -8 -13 -22 -21 -33 -20 -11 2 -21
-3 -23 -9 -6 -18 18 -16 44 2 16 11 24 12 29 4 4 -8 3 -9 -4 -5 -7 4 -12 2
-12 -3 0 -6 -7 -11 -15 -11 -8 0 -15 -5 -15 -11 0 -6 6 -9 13 -6 8 3 20 1 28
-4 11 -7 11 -9 -3 -9 -9 0 -24 -7 -33 -16 -11 -12 -20 -13 -27 -6 -6 6 -6 12
1 17 8 4 7 11 -3 21 -20 19 -46 18 -46 -3 0 -14 -2 -15 -9 -4 -7 11 -9 11 -13
0 -3 -9 -9 -6 -18 11 -17 34 -51 70 -60 65 -5 -3 -10 2 -14 10 -6 18 -42 20
-52 4 -5 -9 1 -10 20 -5 25 6 32 -1 26 -29 -1 -5 4 -4 11 2 10 10 17 9 31 -4
18 -16 18 -17 -5 -27 -24 -11 -24 -12 -7 -29 17 -17 18 -17 17 -1 -1 9 3 19
10 21 7 3 10 -5 9 -21 -2 -17 1 -23 10 -19 8 3 14 0 14 -6 0 -6 -4 -11 -10
-11 -5 0 -10 -5 -10 -11 0 -8 5 -8 15 1 13 10 15 9 16 -11 0 -20 2 -21 7 -6 7
16 14 12 56 -27 27 -24 46 -49 42 -54 -3 -6 -2 -21 3 -34 l10 -23 0 24 c1 20
3 21 16 11 8 -7 12 -16 9 -21 -3 -5 0 -9 5 -9 6 0 11 6 11 13 0 6 16 32 36 56
20 26 34 54 32 65 -2 12 4 28 13 37 10 10 15 28 13 45 -2 16 -1 21 2 12 3 -10
10 -18 15 -18 6 0 7 -4 4 -10 -3 -5 -1 -10 4 -10 6 0 11 -11 11 -24 0 -14 5
-28 10 -31 6 -3 10 -1 10 4 0 6 8 11 17 11 13 0 14 -3 5 -12 -16 -16 -15 -25
4 -32 12 -4 14 -1 9 14 -4 12 -2 20 5 20 8 0 8 6 0 20 -8 14 -8 20 0 20 6 0 8
4 5 10 -3 5 -18 7 -33 4 -24 -5 -31 -1 -47 30 -18 33 -31 41 -60 37 -5 -1 -2
5 8 12 21 17 21 21 1 41 -9 10 -11 16 -4 16 8 0 9 10 5 31 -6 28 -5 30 13 25
11 -4 24 -1 31 8 10 12 9 14 -6 11 -10 -2 -45 -6 -78 -8 -56 -4 -61 -3 -62 16
-1 11 -10 27 -19 36 -17 15 -17 15 -5 -1z m81 -68 c0 -5 -2 -10 -4 -10 -3 0
-8 5 -11 10 -3 6 -1 10 4 10 6 0 11 -4 11 -10z m20 -20 c0 -5 -5 -10 -11 -10
-5 0 -7 5 -4 10 3 6 8 10 11 10 2 0 4 -4 4 -10z m-15 -30 c3 -6 -1 -7 -9 -4
-18 7 -21 14 -7 14 6 0 13 -4 16 -10z m-25 -35 c0 -8 7 -15 16 -15 9 0 18 -9
21 -20 3 -11 10 -17 15 -14 6 4 4 -4 -3 -17 -7 -15 -14 -19 -17 -11 -2 6 -8 9
-14 6 -5 -4 -5 3 2 16 13 25 10 30 -18 33 -13 1 -20 8 -19 19 2 22 17 24 17 3z
m-100 -145 c0 -5 9 -12 20 -15 11 -3 20 -13 20 -21 0 -18 -4 -18 -32 6 -12 11
-34 29 -48 40 l-25 20 33 -11 c17 -6 32 -15 32 -19z m100 23 c15 9 22 9 32 -1
9 -9 9 -12 -4 -12 -14 0 -16 -6 -8 -40 0 -3 7 3 14 13 13 16 14 16 20 0 4 -10
-1 -24 -15 -37 -21 -21 -22 -21 -15 -1 6 20 6 20 -9 1 -8 -11 -11 -22 -6 -25
5 -4 3 -15 -5 -25 -13 -18 -14 -18 -33 5 -22 26 -28 59 -11 59 17 0 11 40 -7
47 -15 6 -14 7 3 13 10 4 20 4 22 -1 2 -5 12 -3 22 4z"/>
<path d="M960 3592 c0 -12 19 -26 26 -19 2 2 -2 10 -11 17 -9 8 -15 8 -15 2z"/>
<path d="M678 3553 c7 -3 16 -2 19 1 4 3 -2 6 -13 5 -11 0 -14 -3 -6 -6z"/>
<path d="M714 3551 c4 -5 0 -12 -6 -15 -7 -3 -3 -3 9 -1 12 3 24 1 28 -5 7
-12 85 -14 85 -2 0 14 -48 32 -86 32 -19 0 -33 -4 -30 -9z"/>
<path d="M2880 3550 c-14 -4 -19 -8 -12 -9 6 -1 12 -8 12 -17 0 -11 -6 -15
-20 -11 -11 3 -18 1 -14 -4 3 -5 0 -9 -5 -9 -12 0 -15 -149 -3 -166 4 -6 15
-14 25 -17 26 -10 16 -31 -17 -35 -18 -2 -26 0 -22 7 4 6 1 21 -5 33 -12 22
-13 55 -4 170 l4 46 -70 -19 c-38 -10 -71 -19 -74 -19 -3 0 -5 -57 -5 -126 l0
-127 78 6 c42 4 100 12 127 19 l50 13 3 138 c3 146 4 144 -48 127z m-166 -125
c-4 -8 -10 -12 -15 -9 -14 8 -10 24 6 24 9 0 12 -6 9 -15z m73 -17 c-3 -8 -6
-5 -6 6 -1 11 2 17 5 13 3 -3 4 -12 1 -19z m-20 -10 c-3 -8 -6 -5 -6 6 -1 11
2 17 5 13 3 -3 4 -12 1 -19z m-29 -101 l37 -4 -42 -1 c-39 -2 -43 0 -42 21 1
16 3 17 6 5 3 -11 17 -18 41 -21z m52 6 c0 -10 -4 -14 -8 -8 -4 6 -11 13 -16
18 -5 4 -2 7 7 7 10 0 17 -8 17 -17z"/>
<path d="M581 3536 c-7 -9 -11 -86 -10 -242 0 -126 0 -291 0 -366 l-1 -138
-50 0 c-34 0 -50 -4 -50 -13 0 -14 -43 -17 -56 -4 -9 8 -244 10 -244 1 0 -3 9
-19 21 -35 l20 -29 -24 0 c-50 0 -88 -12 -83 -26 3 -8 1 -14 -4 -14 -20 0 -9
-18 18 -29 30 -13 301 -11 309 1 2 5 14 8 26 7 21 0 21 -1 2 -9 -16 -7 -13 -9
18 -9 20 -1 46 5 57 11 16 10 24 10 40 0 11 -6 38 -12 60 -12 58 0 80 26 80
95 l0 55 -40 0 -40 0 0 111 c0 95 2 110 15 105 8 -3 15 -1 15 4 0 6 -7 10 -15
10 -8 0 -15 4 -15 10 0 5 15 9 33 8 17 -1 52 0 77 2 38 3 34 4 -30 9 -69 6
-74 8 -73 29 0 12 1 38 2 58 1 21 5 33 11 29 16 -10 12 7 -7 28 -17 19 -17 19
4 13 20 -6 23 -4 21 18 -3 30 -12 33 -28 9 -11 -17 -11 -17 -6 -1 3 10 6 83 7
163 2 140 2 145 23 145 20 1 20 1 2 12 -14 8 -24 8 -38 -1 -11 -7 -18 -7 -18
-1 0 14 -16 12 -29 -4z"/>
<path d="M1111 3521 c-12 -21 1 -24 200 -36 82 -6 97 -4 102 9 3 8 3 17 -2 20
-4 3 -54 8 -112 11 -57 3 -121 8 -141 10 -29 4 -39 1 -47 -14z"/>
<path d="M1072 3485 c-9 -20 -9 -23 3 -18 8 3 15 14 15 24 0 25 -5 24 -18 -6z"/>
<path d="M670 3489 c0 -5 5 -7 10 -4 6 3 10 8 10 11 0 2 -4 4 -10 4 -5 0 -10
-5 -10 -11z"/>
<path d="M728 3463 c7 -3 16 -2 19 1 4 3 -2 6 -13 5 -11 0 -14 -3 -6 -6z"/>
<path d="M760 3449 c0 -5 5 -7 10 -4 6 3 10 8 10 11 0 2 -4 4 -10 4 -5 0 -10
-5 -10 -11z"/>
<path d="M870 3409 c-14 -12 -26 -16 -28 -10 -6 18 -18 12 -19 -9 -1 -16 2
-18 15 -11 9 4 23 6 30 4 7 -3 11 1 10 9 -2 8 5 12 20 11 14 -2 22 3 22 12 0
21 -20 18 -50 -6z"/>
<path d="M1153 3383 c4 -3 0 -15 -10 -25 -18 -20 -11 -23 17 -8 20 10 17 40
-3 40 -6 0 -7 -3 -4 -7z"/>
<path d="M3023 3345 c0 -22 2 -30 4 -17 2 12 2 30 0 40 -3 9 -5 -1 -4 -23z"/>
<path d="M1348 3275 c-5 -55 -7 -134 -7 -175 l2 -75 9 85 c5 47 7 126 6 175
l-3 90 -7 -100z"/>
<path d="M1076 3285 c-9 -26 -7 -32 5 -12 6 10 9 21 6 23 -2 3 -7 -2 -11 -11z"/>
<path d="M1265 3290 c28 -12 37 -12 30 0 -3 6 -16 10 -28 9 -21 0 -21 -1 -2
-9z"/>
<path d="M1414 3145 c0 -66 1 -92 3 -57 2 34 2 88 0 120 -2 31 -3 3 -3 -63z"/>
<path d="M700 3234 c0 -8 7 -22 15 -30 8 -9 15 -12 15 -7 0 5 -5 14 -12 21 -9
9 -9 12 1 12 7 0 9 5 6 10 -10 15 -25 12 -25 -6z"/>
<path d="M868 3203 c7 -3 16 -2 19 1 4 3 -2 6 -13 5 -11 0 -14 -3 -6 -6z"/>
<path d="M712 3171 c-11 -7 -11 -9 1 -14 16 -6 27 0 27 15 0 10 -11 10 -28 -1z"/>
<path d="M898 3173 c7 -3 16 -2 19 1 4 3 -2 6 -13 5 -11 0 -14 -3 -6 -6z"/>
<path d="M5392 3145 c0 -16 2 -22 5 -12 2 9 2 23 0 30 -3 6 -5 -1 -5 -18z"/>
<path d="M3528 3133 c6 -2 18 -2 25 0 6 3 1 5 -13 5 -14 0 -19 -2 -12 -5z"/>
<path d="M952 3080 c5 -52 0 -57 -32 -40 -16 8 -18 8 -14 -5 4 -8 14 -15 24
-15 9 0 22 -10 28 -22 10 -21 11 -22 11 -3 1 19 7 20 173 17 95 -2 179 -5 186
-7 9 -3 12 -45 12 -163 0 -149 1 -158 19 -159 17 -1 21 7 26 53 9 66 2 92 -20
74 -13 -11 -15 1 -15 99 l0 111 -92 0 c-51 0 -137 3 -191 7 -89 5 -98 8 -94
25 3 10 1 18 -5 18 -6 0 -8 13 -6 30 3 17 0 30 -5 30 -5 0 -7 -22 -5 -50z"/>
<path d="M814 3101 c3 -5 22 -18 42 -30 19 -12 33 -17 30 -12 -3 5 -22 18 -42
30 -19 12 -33 17 -30 12z"/>
<path d="M981 3094 c0 -11 3 -14 6 -6 3 7 2 16 -1 19 -3 4 -6 -2 -5 -13z"/>
<path d="M2660 3100 c-36 -4 -127 -8 -202 -9 -82 -1 -138 -5 -138 -11 0 -5 -6
-7 -14 -4 -8 3 -17 1 -21 -5 -3 -6 -21 -11 -38 -11 -21 0 -28 3 -19 9 23 14
-16 19 -150 19 l-123 0 103 -10 c71 -7 102 -14 102 -23 0 -9 17 -13 53 -14 30
0 66 -5 81 -11 20 -7 25 -7 20 2 -5 8 -2 9 12 3 19 -7 26 -9 117 -19 46 -6 83
-27 70 -40 -4 -3 -1 -6 4 -6 6 0 14 6 17 13 3 6 5 3 3 -8 -2 -14 -9 -20 -25
-19 -13 1 -22 -4 -22 -13 0 -8 5 -11 10 -8 6 3 10 0 10 -7 0 -9 3 -9 10 2 8
13 13 11 32 -9 l23 -23 -30 6 c-19 4 -25 3 -15 -3 8 -4 32 -11 53 -15 20 -4
37 -12 37 -18 0 -5 -7 -8 -15 -4 -8 3 -14 0 -12 -6 1 -6 -11 -16 -28 -21 -68
-21 -72 -26 -25 -26 25 -1 62 -4 84 -8 38 -6 38 -6 32 -43 -6 -36 -4 -38 25
-44 17 -3 58 -6 90 -6 l59 0 -2 30 c-1 17 -6 30 -10 30 -4 0 -8 15 -8 34 0 19
-5 38 -11 41 -6 4 -8 13 -5 21 3 8 1 14 -4 14 -5 0 -10 14 -12 32 -2 17 -8 33
-15 35 -11 4 -29 -33 -25 -53 1 -7 -4 -14 -13 -17 -8 -4 -20 -27 -26 -52 -6
-25 -16 -48 -21 -51 -6 -4 -7 2 -3 16 5 17 4 20 -5 15 -8 -5 -11 -3 -8 6 7 18
-10 51 -23 44 -5 -4 -9 1 -9 9 0 22 4 31 12 29 3 -1 5 5 3 15 -3 24 13 52 30
52 9 0 15 10 15 25 0 22 4 25 35 25 25 0 35 4 35 15 0 9 10 20 23 25 12 5 16
9 10 9 -23 1 -14 19 12 25 14 4 23 11 20 16 -7 11 -66 11 -165 0z m-90 -115
c0 -14 -4 -25 -9 -25 -4 0 -6 11 -3 25 2 14 6 25 8 25 2 0 4 -11 4 -25z m185
-162 c-4 -27 -14 -59 -22 -73 -14 -25 -14 -25 -8 10 4 19 9 52 12 73 3 20 10
37 15 37 6 0 8 -18 3 -47z m-75 -83 c0 -5 -4 -10 -10 -10 -5 0 -10 5 -10 10 0
6 5 10 10 10 6 0 10 -4 10 -10z"/>
<path d="M674 3085 c-10 -26 0 -37 21 -20 19 14 19 15 1 8 -15 -5 -18 -3 -13
10 3 9 4 17 1 17 -2 0 -7 -7 -10 -15z"/>
<path d="M3588 3064 c-15 -8 -35 -29 -43 -47 -14 -29 -14 -30 0 -13 8 11 15
23 15 28 0 4 18 12 40 18 42 11 80 6 80 -11 0 -5 5 -9 12 -9 6 0 1 11 -12 25
-27 28 -53 31 -92 9z"/>
<path d="M1398 3008 c7 -7 13 -41 14 -77 l2 -66 3 54 c5 64 -2 101 -19 101 -9
0 -9 -3 0 -12z"/>
<path d="M2448 2983 c7 -3 16 -2 19 1 4 3 -2 6 -13 5 -11 0 -14 -3 -6 -6z"/>
<path d="M3685 2980 c3 -5 8 -10 11 -10 2 0 4 5 4 10 0 6 -5 10 -11 10 -5 0
-7 -4 -4 -10z"/>
<path d="M3711 2892 c-1 -72 -4 -101 -12 -96 -8 5 -8 1 0 -14 22 -41 26 -29
23 66 -4 142 -9 162 -11 44z"/>
<path d="M3526 2945 c-4 -20 -10 -43 -13 -51 -3 -8 -1 -14 5 -14 5 0 12 21 16
47 7 55 1 69 -8 18z"/>
<path d="M2410 2940 c-2 -14 -2 -42 0 -64 1 -29 -1 -36 -11 -31 -8 6 -10 4 -4
-5 4 -7 8 -27 7 -43 l-1 -31 24 30 23 29 -3 -35 c-1 -19 3 -38 9 -42 6 -4 -14
-9 -44 -10 l-55 -1 65 -6 c36 -3 70 -5 76 -3 7 2 14 19 16 38 3 24 0 33 -8 30
-17 -7 -27 24 -13 41 7 7 9 16 5 20 -3 3 -6 1 -6 -5 0 -7 -4 -12 -10 -12 -5 0
-10 7 -10 15 0 8 -9 15 -20 15 -13 0 -20 -7 -20 -20 0 -11 -3 -20 -8 -20 -4 0
-6 20 -4 44 2 23 2 54 -1 67 l-4 24 -3 -25z"/>
<path d="M2027 2893 c-10 -50 -8 -133 3 -133 5 0 10 9 10 20 0 11 4 20 9 20 4
0 6 -11 3 -25 -2 -14 -11 -25 -19 -25 -8 0 -13 -6 -11 -12 3 -7 25 -15 51 -18
25 -3 43 -2 41 2 -6 9 5 11 64 8 41 -2 44 0 38 22 -6 20 -5 20 9 -4 13 -24 20
-27 47 -21 23 4 29 3 24 -6 -6 -9 0 -10 21 -5 15 4 30 8 32 10 2 2 2 36 1 76
-1 40 -2 83 -1 96 1 17 -5 22 -24 22 -14 0 -25 -4 -25 -10 0 -5 6 -10 14 -10
20 0 27 -38 9 -55 -8 -8 -17 -15 -19 -15 -12 0 -34 30 -34 45 0 10 -5 13 -12
9 -7 -4 -8 -3 -4 5 10 15 36 -4 36 -25 0 -20 17 -17 24 3 4 10 4 14 0 10 -4
-4 -12 3 -18 15 -12 23 -50 29 -88 13 -11 -4 -18 -3 -18 4 0 7 -28 11 -79 11
-79 0 -79 0 -84 -27z m80 -11 c8 -19 -7 -29 -18 -12 -7 11 -8 6 -3 -15 7 -27
6 -29 -9 -16 -11 9 -17 10 -17 2 0 -6 -4 -11 -9 -11 -11 0 -21 38 -14 56 7 18
63 15 70 -4z m83 8 c11 -8 7 -9 -15 -4 -28 7 -29 6 -15 -12 8 -10 10 -16 5
-11 -4 4 -17 0 -27 -10 -17 -15 -18 -15 -18 3 0 38 37 56 70 34z m40 -30 c-18
-11 -5 -26 30 -33 15 -3 9 -5 -12 -3 -21 1 -38 -2 -38 -6 0 -4 6 -8 13 -9 9 0
9 -2 0 -6 -24 -9 -26 -8 -29 15 -2 12 1 22 6 22 6 0 10 14 10 32 0 31 1 31 18
15 15 -15 15 -19 2 -27z m-146 -65 c-4 -8 -8 -15 -10 -15 -2 0 -4 7 -4 15 0 8
4 15 10 15 5 0 7 -7 4 -15z m192 -10 c-3 -8 -1 -15 4 -15 5 0 7 -7 3 -16 -5
-15 -7 -15 -15 1 -10 16 -4 45 8 45 3 0 4 -7 0 -15z m50 -20 c0 -14 -3 -25 -9
-25 -5 0 -7 7 -4 15 4 8 2 17 -4 20 -5 4 -7 11 -3 16 9 15 18 2 20 -26z m-186
15 c0 -5 -4 -10 -10 -10 -5 0 -10 5 -10 10 0 6 5 10 10 10 6 0 10 -4 10 -10z
m50 0 c0 -5 -2 -10 -4 -10 -3 0 -8 5 -11 10 -3 6 -1 10 4 10 6 0 11 -4 11 -10z
m47 -12 c-3 -8 -6 -5 -6 6 -1 11 2 17 5 13 3 -3 4 -12 1 -19z"/>
<path d="M2926 2894 c-8 -21 22 -45 53 -41 16 1 25 9 27 24 4 22 -21 40 -31
23 -4 -6 0 -10 7 -10 8 0 6 -5 -5 -11 -21 -12 -38 -4 -30 16 3 8 1 15 -5 15
-5 0 -13 -7 -16 -16z"/>
<path d="M7395 2829 c58 -12 285 -11 285 1 0 6 -60 10 -162 9 -114 -1 -151 -4
-123 -10z"/>
<path d="M4302 2811 c26 -11 55 -18 64 -14 12 4 15 0 14 -18 -1 -13 -1 -27 0
-31 1 -5 3 -14 4 -20 1 -18 34 -22 51 -8 16 13 21 55 6 46 -5 -3 -21 6 -36 20
-29 27 -44 32 -110 40 l-40 5 47 -20z m128 -71 c0 -5 -2 -10 -4 -10 -3 0 -8 5
-11 10 -3 6 -1 10 4 10 6 0 11 -4 11 -10z"/>
<path d="M1403 2745 c0 -44 2 -61 4 -37 2 23 2 59 0 80 -2 20 -4 1 -4 -43z"/>
<path d="M3750 2785 c0 -14 -7 -36 -16 -50 -14 -22 -14 -24 5 -35 20 -10 21
-8 21 50 0 33 -2 60 -5 60 -3 0 -5 -11 -5 -25z"/>
<path d="M2373 2753 c9 -2 25 -2 35 0 9 3 1 5 -18 5 -19 0 -27 -2 -17 -5z"/>
<path d="M3670 2749 c0 -5 5 -7 10 -4 6 3 10 8 10 11 0 2 -4 4 -10 4 -5 0 -10
-5 -10 -11z"/>
<path d="M3670 2726 c0 -2 9 -6 20 -9 11 -3 18 -1 14 4 -5 9 -34 13 -34 5z"/>
<path d="M2568 2683 c12 -2 32 -2 45 0 12 2 2 4 -23 4 -25 0 -35 -2 -22 -4z"/>
<path d="M3670 2681 c0 -6 5 -13 10 -16 6 -3 10 1 10 9 0 9 -4 16 -10 16 -5 0
-10 -4 -10 -9z"/>
<path d="M3713 2683 c-18 -7 -16 -33 2 -33 8 0 15 9 15 20 0 11 -1 20 -2 19
-2 0 -9 -3 -15 -6z"/>
<path d="M2218 2673 c12 -2 32 -2 45 0 12 2 2 4 -23 4 -25 0 -35 -2 -22 -4z"/>
<path d="M2323 2663 c15 -2 39 -2 55 0 15 2 2 4 -28 4 -30 0 -43 -2 -27 -4z"/>
<path d="M4242 2633 c-10 -4 -10 -8 -1 -19 8 -10 8 -14 0 -14 -6 0 -11 -7 -11
-15 0 -19 30 -19 56 0 23 17 34 19 34 4 0 -5 -4 -8 -9 -4 -5 3 -12 1 -16 -5
-3 -5 6 -16 21 -22 22 -10 28 -10 32 0 2 8 9 9 20 3 9 -5 19 -9 22 -9 3 -1 13
-4 23 -7 9 -4 24 -5 32 -1 23 8 7 34 -21 34 -14 0 -35 9 -47 20 -12 11 -34 23
-49 26 -58 12 -73 14 -86 9z"/>
<path d="M437 2368 c-3 -95 -4 -253 -2 -350 1 -98 -1 -178 -5 -178 -5 0 -6 -9
-3 -20 3 -11 9 -18 13 -15 4 3 4 -13 -1 -36 -5 -22 -7 -44 -4 -50 4 -5 -4 -10
-17 -10 -17 -1 -18 -3 -5 -6 19 -5 24 -43 5 -43 -6 0 -3 -7 8 -16 19 -15 18
-15 -3 -11 -13 3 -23 1 -23 -4 0 -5 10 -9 23 -10 18 -1 17 -2 -8 -10 -16 -5
-63 -7 -102 -3 l-73 6 -1 -28 -1 -29 -8 25 c-4 14 -8 54 -8 90 1 36 3 53 5 38
2 -16 9 -28 15 -28 5 0 8 7 4 15 -7 20 4 46 16 39 6 -4 5 -10 -3 -15 -10 -6
-10 -9 -2 -9 6 0 15 5 18 11 4 6 30 9 59 8 l51 -3 -3 34 c-2 19 -8 40 -12 45
-5 6 -39 8 -83 5 l-75 -5 -6 74 c-3 41 -6 97 -6 125 0 47 3 52 29 64 26 12 29
18 35 85 6 68 5 73 -17 93 -19 16 -23 28 -19 53 3 22 -1 38 -13 51 -22 24 -29
25 -51 3 -14 -15 -18 -15 -28 -2 -11 15 -42 14 -63 -3 -7 -5 -26 -7 -43 -3
-30 6 -30 6 -30 -34 0 -40 1 -41 38 -42 l37 -2 -35 -6 -35 -6 -3 -115 -3 -115
68 0 68 0 3 -111 3 -111 -71 -7 c-66 -7 -70 -9 -70 -32 0 -24 1 -24 73 -20 39
2 60 1 45 -1 -38 -6 -36 -21 2 -17 l30 4 0 -85 0 -85 -32 0 c-18 0 -51 -3 -72
-7 -34 -5 -38 -4 -33 10 4 10 2 17 -3 17 -16 0 -13 -737 3 -744 9 -5 9 -7 0
-12 -10 -4 -13 -97 -13 -415 l0 -409 929 0 929 0 7 36 c6 32 9 35 31 30 15 -4
24 -2 24 5 0 7 9 9 24 5 14 -3 36 -2 51 4 20 8 27 7 31 -5 7 -17 44 -21 44 -5
0 6 13 10 29 10 17 0 32 4 36 10 6 10 36 2 47 -14 4 -7 14 -6 30 1 42 21 83
24 128 8 24 -8 46 -12 49 -8 9 12 37 9 54 -6 9 -7 21 -10 27 -6 6 4 17 1 25
-5 8 -7 23 -10 33 -8 11 3 37 2 58 -2 68 -12 137 23 225 112 21 21 45 38 54
38 11 0 15 5 11 15 -3 9 0 15 9 15 7 0 16 8 19 18 6 17 56 42 87 42 8 0 23 8
34 16 19 15 16 15 -40 11 -75 -7 -104 -16 -129 -39 -11 -10 -26 -18 -33 -18
-18 0 -69 -53 -78 -80 -5 -15 -12 -19 -25 -15 -14 5 -18 1 -17 -14 1 -16 6
-19 24 -15 14 4 23 2 23 -5 0 -6 -13 -11 -28 -11 -16 0 -55 -9 -87 -20 -70
-24 -82 -25 -101 -5 -9 8 -27 15 -42 16 -190 5 -335 4 -372 -4 -25 -5 -87 -9
-138 -8 -78 2 -97 -1 -114 -16 -21 -18 -21 -18 -6 7 9 14 19 51 23 82 3 32 11
60 16 64 6 3 36 8 67 10 31 3 77 6 102 8 25 2 61 11 79 20 18 10 40 14 49 11
25 -10 115 -13 127 -4 6 4 22 10 35 13 78 15 130 32 130 41 0 13 39 38 65 41
11 1 25 3 30 5 6 1 18 -1 29 -6 10 -4 40 -3 67 3 27 7 68 9 92 6 29 -4 55 -1
82 11 55 24 227 46 267 35 17 -5 35 -7 39 -4 19 12 254 7 284 -6 34 -15 40
-16 110 -25 70 -9 125 -9 163 0 28 6 31 5 26 -9 -5 -12 0 -16 16 -16 16 0 20
4 16 15 -3 8 -1 15 3 15 7 0 21 -23 21 -35 0 -2 -14 -8 -30 -14 -17 -5 -30
-17 -30 -27 0 -10 -5 -14 -14 -11 -9 4 -13 -2 -13 -18 0 -22 1 -22 33 -9 21 9
35 10 39 4 6 -10 3 -12 -25 -14 -8 -1 -13 -8 -11 -16 2 -8 4 -29 4 -47 1 -17
5 -29 9 -27 4 3 8 0 8 -5 0 -6 -6 -11 -14 -11 -8 0 -17 -7 -20 -16 -4 -12 -1
-14 14 -9 22 7 85 -3 76 -12 -3 -4 2 -12 12 -20 16 -14 16 -14 -2 -8 -11 3
-23 0 -28 -7 -14 -23 -9 -29 20 -22 23 6 25 5 15 -8 -7 -8 -9 -19 -5 -23 4 -5
1 -5 -6 -1 -7 4 -15 1 -18 -9 -9 -22 2 -30 21 -15 12 10 15 10 15 -4 0 -20 7
-20 26 -1 14 13 14 15 0 15 -19 0 -21 16 -4 26 6 4 17 -1 24 -11 8 -11 21 -16
34 -12 11 3 18 1 15 -3 -3 -5 -1 -11 4 -14 9 -6 6 52 -3 62 -3 2 -13 -4 -23
-13 -21 -21 -29 -5 -13 24 12 23 35 28 44 9 3 -7 3 2 0 19 -4 26 -2 33 10 33
15 0 15 2 1 23 -8 13 -12 28 -8 33 5 5 -1 2 -12 -7 -31 -25 -55 -31 -55 -14 0
8 8 15 18 15 14 0 15 2 2 10 -12 7 -10 11 10 18 16 6 25 17 25 32 0 13 6 25
13 27 9 4 11 -6 8 -34 -3 -21 -2 -30 0 -20 4 12 12 16 25 12 15 -5 19 -1 19
17 0 35 -32 79 -50 68 -24 -15 -30 0 -15 37 8 19 13 39 10 43 -3 4 4 10 15 13
13 3 20 0 20 -9 0 -28 15 -13 16 16 1 26 -2 29 -22 24 -15 -4 -24 -2 -24 5 0
6 5 11 11 11 6 0 8 9 4 20 -4 11 -2 20 4 20 6 0 8 7 5 15 -4 8 -1 15 6 15 6 0
9 4 6 9 -3 5 1 11 9 14 9 4 12 1 8 -9 -8 -22 13 -17 31 9 13 18 15 18 8 2 -5
-11 -8 -28 -7 -37 2 -10 -1 -18 -6 -18 -16 0 -10 -25 11 -47 12 -14 27 -19 40
-16 24 6 25 19 5 66 -8 19 -11 37 -8 41 4 3 1 6 -5 6 -7 0 -12 4 -12 9 0 8 59
5 68 -4 3 -3 -5 -14 -18 -25 -22 -19 -22 -20 -2 -20 11 0 23 6 25 13 5 11 8
-2 11 -43 1 -8 12 -17 25 -18 15 -2 21 0 16 7 -3 6 0 14 8 17 8 3 17 14 20 25
4 15 2 19 -8 15 -21 -8 -31 15 -11 26 22 12 20 35 -4 43 -11 4 -18 10 -16 13
8 13 -18 39 -49 49 -34 11 -32 30 3 25 12 -1 22 2 22 8 0 5 -8 10 -17 10 -15
0 -64 59 -69 83 -1 4 -2 9 -3 12 0 3 -9 1 -19 -4 -14 -7 -27 -5 -50 9 -30 18
-32 18 -32 2 0 -22 11 -37 32 -45 12 -4 15 -2 11 9 -3 7 -1 14 5 14 15 0 33
-26 24 -35 -4 -5 -2 -6 3 -2 6 3 22 -3 35 -14 14 -10 20 -19 15 -19 -6 0 -12
-13 -13 -29 -2 -26 2 -30 43 -41 25 -7 45 -18 45 -25 0 -21 -13 -25 -26 -7
-13 16 -13 16 -14 -1 0 -24 -35 -19 -35 5 0 9 -10 27 -21 40 -12 13 -25 33
-28 45 -6 18 -4 21 16 16 17 -4 20 -3 13 5 -6 7 -27 13 -48 14 -20 2 -37 7
-37 12 0 4 -7 6 -15 2 -8 -3 -15 -2 -15 3 0 5 -12 9 -27 9 -23 0 -25 -2 -11
-12 10 -8 13 -17 8 -25 -6 -11 -10 -10 -18 4 -5 10 -14 15 -21 10 -9 -5 -7
-11 6 -21 16 -13 17 -15 2 -26 -9 -7 -21 -23 -28 -36 -7 -14 -18 -21 -27 -18
-8 3 -14 1 -14 -4 0 -6 7 -10 16 -10 22 0 12 -23 -14 -35 -23 -10 -30 -25 -12
-25 6 0 10 -11 10 -25 0 -22 -3 -24 -30 -18 -19 3 -30 1 -30 -6 0 -6 9 -11 20
-11 25 0 26 -15 3 -25 -32 -13 -97 -27 -138 -29 -22 -1 -46 -5 -53 -10 -7 -4
-19 -3 -27 4 -8 6 -24 11 -37 9 -13 -1 -30 1 -38 4 -27 10 -182 18 -310 17
-188 -2 -225 -4 -230 -11 -3 -4 -27 -10 -53 -12 -27 -3 -54 -10 -60 -15 -7 -5
-41 -9 -77 -8 -65 2 -247 -25 -285 -42 -11 -5 -33 -14 -50 -19 -16 -5 -29 -15
-27 -22 1 -7 -2 -10 -7 -7 -5 4 -22 1 -38 -5 -33 -14 -58 -18 -131 -23 -29 -2
-55 -6 -59 -9 -3 -4 -12 -2 -20 4 -9 9 -17 8 -27 0 -15 -13 -99 -29 -183 -36
-38 -3 -51 -1 -48 8 2 6 6 37 9 67 7 62 16 133 22 170 2 14 9 88 14 165 6 77
12 145 15 152 2 6 -1 14 -8 17 -8 3 -9 7 -2 13 15 12 12 42 -5 53 -13 8 -12
10 3 10 9 0 17 5 17 10 0 6 -11 10 -25 10 -27 0 -98 34 -89 42 11 12 -79 17
-123 8 -101 -21 -99 -21 -83 -11 22 15 6 23 -24 11 -15 -5 -53 -10 -85 -10
-32 0 -74 -6 -92 -14 -19 -7 -39 -11 -46 -9 -6 2 -14 -1 -18 -6 -3 -6 -17 -11
-31 -11 -14 0 -22 4 -19 10 7 12 -8 14 -19 3 -4 -5 -17 -9 -29 -10 -59 -6
-159 -23 -168 -29 -5 -3 -17 0 -25 7 -8 6 -17 9 -21 5 -3 -3 -1 -6 5 -6 7 0
12 -5 12 -10 0 -7 -6 -7 -20 0 -17 9 -19 8 -13 -7 5 -14 4 -16 -8 -7 -8 6 -32
10 -54 9 -22 -1 -43 3 -48 9 -5 7 -11 5 -18 -6 -11 -19 -49 -25 -49 -8 0 15
-26 12 -40 -5 -7 -8 -18 -15 -24 -15 -6 0 -4 5 4 11 11 8 7 9 -19 5 -18 -3
-42 -6 -52 -6 -11 0 -19 -6 -19 -14 0 -10 -15 -15 -47 -18 -27 -3 -56 -8 -65
-12 -11 -5 -18 -4 -18 2 0 6 8 13 18 15 9 3 1 4 -18 2 -19 -2 -42 -3 -50 -4
-11 -1 -11 -4 -2 -13 16 -16 16 -33 -1 -22 -12 9 -99 11 -127 3 -8 -2 -18 -8
-22 -14 -5 -6 -11 -5 -17 4 -6 10 -10 10 -16 1 -4 -6 -13 -9 -21 -6 -8 3 -14
2 -14 -3 0 -5 -11 -12 -25 -15 -31 -8 -54 2 -34 15 10 6 8 9 -7 9 -12 0 -24
-7 -28 -15 -3 -8 -12 -15 -21 -15 -16 0 -21 15 -7 23 4 2 1 2 -6 0 -8 -1 -25
-3 -38 -3 -13 0 -23 -5 -22 -11 2 -6 -15 -12 -37 -14 -22 -1 -33 -1 -24 2 14
3 15 9 6 39 -7 22 -13 30 -18 22 -4 -7 -3 -18 2 -24 7 -9 4 -16 -11 -24 -22
-12 -43 -5 -24 8 6 4 15 22 20 41 5 19 15 36 23 39 8 3 11 0 7 -6 -4 -6 2 -8
15 -5 17 5 19 2 14 -18 -5 -21 -2 -25 20 -27 17 -1 24 2 19 9 -3 6 0 15 7 20
12 7 12 9 0 9 -11 0 -11 3 -1 15 7 8 16 15 21 15 5 0 9 -7 9 -15 0 -8 5 -15
10 -15 6 0 13 0 18 0 4 0 7 9 7 20 0 11 5 19 10 17 6 -1 9 -13 7 -27 -2 -17 0
-22 7 -15 5 6 11 24 14 40 3 24 4 22 6 -12 1 -32 -3 -43 -16 -46 -16 -4 -16
-5 1 -6 10 0 30 11 43 26 20 21 27 23 34 12 6 -10 3 -16 -9 -21 -11 -4 -5 -7
18 -7 19 0 42 4 50 9 13 8 13 10 -1 10 -18 0 -49 41 -48 62 0 7 4 4 9 -7 8
-19 8 -19 17 3 l9 23 18 -20 c23 -25 58 -29 49 -5 -4 10 -1 15 8 14 39 -6 100
1 94 10 -3 6 -3 10 2 10 4 0 9 201 9 448 1 246 0 438 -3 426 -3 -17 -11 -20
-46 -18 l-42 2 0 356 c0 196 -3 356 -6 356 -3 0 -9 -78 -12 -172z m-310 -24
c-3 -3 -12 -4 -19 -1 -8 3 -5 6 6 6 11 1 17 -2 13 -5z m313 -770 c0 -14 -4
-23 -10 -19 -5 3 -10 15 -10 26 0 10 5 19 10 19 6 0 10 -12 10 -26z m-5 -44
c3 -5 1 -10 -4 -10 -6 0 -11 5 -11 10 0 6 2 10 4 10 3 0 8 -4 11 -10z m425
-630 c0 -5 -2 -10 -4 -10 -3 0 -8 5 -11 10 -3 6 -1 10 4 10 6 0 11 -4 11 -10z
m-286 -46 c3 -8 2 -12 -4 -9 -6 3 -10 10 -10 16 0 14 7 11 14 -7z m3429 -160
c4 -1 12 -2 17 -3 12 -1 13 -31 1 -31 -5 0 -14 6 -20 14 -6 7 -26 17 -44 20
-24 5 -28 9 -18 16 9 5 23 4 35 -3 12 -6 24 -12 29 -13z m-31 -30 c9 -3 15
-11 12 -18 -3 -7 2 -16 11 -20 13 -4 14 -10 5 -26 -15 -28 -30 -25 -30 5 0 21
-7 27 -45 37 -25 7 -45 15 -45 19 0 8 67 10 92 3z m94 -72 c-4 -3 -12 0 -19 7
-9 9 -9 14 3 21 11 7 16 5 18 -6 2 -9 1 -18 -2 -22z m-142 6 c11 18 28 14 24
-5 -2 -11 -14 -18 -31 -20 -22 -1 -27 2 -23 13 3 9 6 21 7 27 0 7 4 3 8 -7 5
-14 10 -16 15 -8z m106 2 c0 -5 -4 -10 -10 -10 -5 0 -10 5 -10 10 0 6 5 10 10
10 6 0 10 -4 10 -10z m171 -16 c12 -14 11 -16 -5 -13 -11 2 -21 10 -24 17 -5
17 13 15 29 -4z m-21 -34 c0 -9 6 -22 13 -29 10 -10 8 -12 -7 -9 -11 1 -19 8
-19 13 0 6 -6 19 -13 30 -20 28 -17 37 6 23 11 -7 20 -20 20 -28z m-210 -10
c0 -5 -2 -10 -4 -10 -3 0 -8 5 -11 10 -3 6 -1 10 4 10 6 0 11 -4 11 -10z m-30
-15 c0 -8 -9 -15 -20 -15 -20 0 -26 11 -13 23 12 13 33 7 33 -8z m-80 -5 c0
-5 -5 -10 -11 -10 -5 0 -7 5 -4 10 3 6 8 10 11 10 2 0 4 -4 4 -10z m70 -42 c0
-8 -5 -10 -32 -12 -6 -1 -12 9 -13 20 -1 19 1 21 22 11 13 -5 23 -14 23 -19z
m150 16 c0 -8 -4 -12 -10 -9 -5 3 -10 10 -10 16 0 5 5 9 10 9 6 0 10 -7 10
-16z m-236 -9 c-4 -8 -10 -15 -15 -15 -4 0 -6 7 -3 15 4 8 10 15 15 15 4 0 6
-7 3 -15z m46 -45 c0 -5 -7 -10 -15 -10 -8 0 -15 5 -15 10 0 6 7 10 15 10 8 0
15 -4 15 -10z m40 -5 c0 -8 -4 -15 -9 -15 -13 0 -22 16 -14 24 11 11 23 6 23
-9z m-126 -13 c3 -5 -1 -9 -9 -9 -8 0 -12 4 -9 9 3 4 7 8 9 8 2 0 6 -4 9 -8z
m54 -33 c-2 -6 -8 -10 -13 -10 -5 0 -11 4 -13 10 -2 6 4 11 13 11 9 0 15 -5
13 -11z m42 -3 c0 -8 -4 -17 -9 -21 -12 -7 -24 12 -16 25 9 15 25 12 25 -4z
m-110 -60 c0 -2 -7 -6 -15 -10 -8 -3 -15 -1 -15 4 0 6 7 10 15 10 8 0 15 -2
15 -4z m58 -15 c-8 -14 -14 -16 -24 -7 -15 14 -8 26 17 26 16 0 17 -3 7 -19z
m22 -36 c0 -8 -4 -17 -10 -20 -6 -4 -10 5 -10 20 0 15 4 24 10 20 6 -3 10 -12
10 -20z m125 -5 c3 -5 1 -10 -4 -10 -6 0 -11 5 -11 10 0 6 2 10 4 10 3 0 8 -4
11 -10z m-68 -15 c0 -8 -6 -15 -14 -15 -14 0 -17 12 -6 23 11 11 20 8 20 -8z
m-87 -21 c0 -2 -7 -4 -15 -4 -8 0 -15 4 -15 10 0 5 7 7 15 4 8 -4 15 -8 15
-10z m-4 -61 c-10 -10 -19 5 -10 18 6 11 8 11 12 0 2 -7 1 -15 -2 -18z m114
-10 c-1 -16 -26 -40 -37 -36 -28 10 -10 40 25 42 6 1 12 -2 12 -6z m-54 -26
c13 -30 7 -47 -17 -47 -20 0 -26 15 -9 25 6 4 8 15 5 26 -9 27 8 24 21 -4z
m-2946 -117 c0 -5 -4 -10 -10 -10 -5 0 -10 5 -10 10 0 6 5 10 10 10 6 0 10 -4
10 -10z m443 -7 c-7 -2 -19 -2 -25 0 -7 3 -2 5 12 5 14 0 19 -2 13 -5z"/>
<path d="M2768 2523 c7 -3 16 -2 19 1 4 3 -2 6 -13 5 -11 0 -14 -3 -6 -6z"/>
<path d="M4447 2499 c4 -13 8 -18 11 -10 2 7 -1 18 -6 23 -8 8 -9 4 -5 -13z"/>
<path d="M554 2285 c0 -49 1 -71 3 -48 2 23 2 64 0 90 -2 26 -3 8 -3 -42z"/>
<path d="M3298 2363 c6 -2 18 -2 25 0 6 3 1 5 -13 5 -14 0 -19 -2 -12 -5z"/>
<path d="M5437 2308 c-16 -56 4 -288 32 -383 20 -67 22 -87 9 -79 -26 17 -104
25 -222 23 -119 -1 -107 -14 36 -42 162 -33 208 -45 208 -57 0 -6 20 -10 44
-10 25 0 48 -5 51 -10 4 -6 16 -8 27 -4 11 3 56 1 101 -6 54 -7 90 -8 107 -2
l25 10 -25 10 c-22 9 -22 11 -5 12 19 1 19 1 1 11 -15 9 -16 13 -5 21 10 7 8
8 -9 5 -18 -4 -22 -2 -17 12 39 125 58 228 62 352 l5 136 -168 7 c-93 3 -187
9 -210 12 -37 5 -42 3 -47 -18z"/>
<path d="M1868 1963 c17 -2 47 -2 65 0 17 2 3 4 -33 4 -36 0 -50 -2 -32 -4z"/>
<path d="M1998 1963 c12 -2 30 -2 40 0 9 3 -1 5 -23 4 -22 0 -30 -2 -17 -4z"/>
<path d="M505 1850 c-3 -5 -1 -10 4 -10 6 0 11 5 11 10 0 6 -2 10 -4 10 -3 0
-8 -4 -11 -10z"/>
<path d="M4975 1839 l-30 -7 32 -1 c17 0 44 -6 59 -11 19 -7 31 -7 37 -1 6 6
9 12 6 14 -10 9 -76 13 -104 6z"/>
<path d="M4830 1780 c20 -13 43 -13 35 0 -3 6 -16 10 -28 10 -18 0 -19 -2 -7
-10z"/>
<path d="M4958 1773 c7 -3 16 -2 19 1 4 3 -2 6 -13 5 -11 0 -14 -3 -6 -6z"/>
<path d="M4760 1742 c0 -23 7 -32 38 -45 20 -10 30 -12 21 -5 -9 7 -14 19 -12
26 3 6 0 12 -7 12 -6 0 -8 -4 -5 -10 3 -6 -1 -7 -10 -3 -23 8 3 25 28 17 27
-8 20 11 -8 24 -38 18 -45 15 -45 -16z"/>
<path d="M2420 1739 l25 -19 -27 9 c-22 8 -26 8 -21 -5 3 -8 12 -13 19 -10 7
3 20 -1 28 -9 18 -19 22 -19 29 -1 4 11 1 13 -10 9 -13 -5 -15 -2 -10 11 4 10
3 15 -3 11 -6 -3 -10 -2 -10 3 0 5 -10 12 -22 15 -22 6 -22 6 2 -14z"/>
<path d="M4850 1750 c0 -5 5 -10 10 -10 6 0 10 5 10 10 0 6 -4 10 -10 10 -5 0
-10 -4 -10 -10z"/>
<path d="M4910 1744 c0 -8 5 -12 10 -9 6 4 8 11 5 16 -9 14 -15 11 -15 -7z"/>
<path d="M4960 1739 c-12 -9 -10 -10 9 -5 13 2 33 -1 45 -9 11 -7 41 -16 66
-19 l45 -5 -43 12 c-24 7 -40 16 -36 20 5 4 1 5 -8 2 -9 -4 -19 -2 -23 4 -8
14 -36 14 -55 0z"/>
<path d="M5077 1739 c7 -7 15 -10 18 -7 3 3 -2 9 -12 12 -14 6 -15 5 -6 -5z"/>
<path d="M57 1729 c7 -7 15 -10 18 -7 3 3 -2 9 -12 12 -14 6 -15 5 -6 -5z"/>
<path d="M4837 1716 c-8 -19 14 -26 30 -10 18 17 16 24 -6 24 -10 0 -21 -6
-24 -14z"/>
<path d="M321 1702 c-1 -20 -4 -21 -22 -11 -17 9 -23 8 -30 -2 -12 -20 -5 -22
45 -15 45 7 65 21 51 34 -4 4 -10 1 -12 -5 -7 -19 -21 -16 -26 5 -3 12 -5 11
-6 -6z"/>
<path d="M4985 1700 c3 -5 8 -10 11 -10 2 0 4 5 4 10 0 6 -5 10 -11 10 -5 0
-7 -4 -4 -10z"/>
<path d="M4760 1670 c0 -23 4 -28 16 -23 12 4 13 7 3 14 -8 4 -10 11 -6 15 3
4 13 1 22 -6 8 -7 15 -9 15 -5 0 9 -31 34 -42 35 -5 0 -8 -13 -8 -30z"/>
<path d="M4841 1668 c-20 -20 -20 -44 0 -32 5 3 7 10 4 15 -4 5 3 9 14 9 12 0
21 7 21 15 0 21 -16 19 -39 -7z"/>
<path d="M5170 1680 c-11 -7 -6 -10 20 -10 26 0 31 3 20 10 -8 5 -17 10 -20
10 -3 0 -12 -5 -20 -10z"/>
<path d="M235 1660 c3 -5 8 -10 11 -10 2 0 4 5 4 10 0 6 -5 10 -11 10 -5 0 -7
-4 -4 -10z"/>
<path d="M5100 1660 c34 -11 60 -11 35 0 -11 5 -29 8 -40 8 -16 0 -15 -2 5 -8z"/>
<path d="M260 1643 c0 -5 10 -8 23 -9 12 0 30 -4 40 -8 12 -6 17 -4 17 8 0 12
-10 16 -40 16 -22 0 -40 -3 -40 -7z"/>
<path d="M5173 1643 c9 -2 25 -2 35 0 9 3 1 5 -18 5 -19 0 -27 -2 -17 -5z"/>
<path d="M70 1611 c-24 -7 -24 -7 9 -14 51 -10 61 -9 61 11 0 15 -2 15 -11 2
-8 -11 -12 -12 -16 -2 -5 13 -6 13 -43 3z"/>
<path d="M4855 1609 c-22 -5 -25 -7 -10 -9 11 -2 26 -3 33 -3 6 1 12 -5 12
-13 0 -8 5 -14 10 -14 14 0 12 19 -2 34 -8 7 -25 9 -43 5z"/>
<path d="M5220 1600 c-12 -8 -10 -10 8 -10 13 0 20 4 17 10 -7 12 -6 12 -25 0z"/>
<path d="M80 1580 c8 -5 26 -10 39 -10 32 0 24 6 -19 14 -25 4 -31 3 -20 -4z"/>
<path d="M5298 1583 c7 -3 16 -2 19 1 4 3 -2 6 -13 5 -11 0 -14 -3 -6 -6z"/>
<path d="M4848 1573 c7 -3 16 -2 19 1 4 3 -2 6 -13 5 -11 0 -14 -3 -6 -6z"/>
<path d="M5162 1555 c-17 -9 -19 -14 -9 -18 7 -3 24 4 38 14 28 21 8 25 -29 4z"/>
<path d="M5258 1523 c7 -3 16 -2 19 1 4 3 -2 6 -13 5 -11 0 -14 -3 -6 -6z"/>
<path d="M2975 1480 c-3 -5 -2 -10 4 -10 5 0 13 5 16 10 3 6 2 10 -4 10 -5 0
-13 -4 -16 -10z"/>
<path d="M4959 1479 c16 -6 28 -6 35 1 7 7 -1 10 -24 9 -33 0 -34 -1 -11 -10z"/>
<path d="M1740 1412 c0 -4 10 -17 23 -29 63 -60 86 -80 90 -77 2 2 15 -8 28
-23 14 -16 51 -50 83 -78 117 -101 176 -158 170 -166 -3 -5 1 -6 9 -4 7 3 26
-6 41 -20 25 -23 36 -30 36 -22 0 10 -39 47 -48 47 -6 0 -16 8 -21 18 -6 9
-11 14 -11 10 0 -12 -60 46 -60 59 0 7 -4 13 -9 13 -5 0 -23 12 -40 28 -17 15
-49 42 -71 61 -30 25 -38 36 -28 42 9 6 6 9 -9 9 -13 0 -23 3 -23 8 0 4 -28
29 -63 57 -34 27 -66 55 -70 62 -9 14 -27 18 -27 5z"/>
<path d="M6310 1391 c0 -6 4 -13 10 -16 6 -3 7 1 4 9 -7 18 -14 21 -14 7z"/>
<path d="M3226 1313 c-6 -14 -5 -15 5 -6 7 7 10 15 7 18 -3 3 -9 -2 -12 -12z"/>
<path d="M1560 1312 c-11 -5 -16 -29 -18 -94 l-4 -88 29 -1 28 -1 -25 -8 c-14
-4 -23 -9 -20 -10 13 -6 69 -6 68 -1 -2 19 4 24 12 11 8 -12 10 -11 10 8 0 24
34 32 43 10 4 -8 6 -7 6 4 1 9 -5 18 -11 21 -10 3 -10 9 0 26 16 27 17 24 -18
61 -16 18 -30 36 -30 42 0 5 -16 6 -37 2 -21 -4 -35 -4 -32 0 3 4 26 10 50 15
l44 9 -40 0 c-22 0 -47 -2 -55 -6z"/>
<path d="M4000 1240 c0 -4 20 -14 45 -22 25 -9 45 -12 45 -9 0 3 -20 13 -45
22 -25 9 -45 13 -45 9z"/>
<path d="M4107 1199 c7 -7 15 -10 18 -7 3 3 -2 9 -12 12 -14 6 -15 5 -6 -5z"/>
<path d="M3494 1149 c-3 -5 -14 -9 -25 -9 -10 0 -19 -4 -19 -9 0 -6 10 -8 23
-6 58 11 77 17 77 23 0 11 -49 11 -56 1z"/>
<path d="M6928 1155 c-3 -3 -21 -7 -41 -8 -20 -2 -39 -6 -43 -9 -10 -11 71 -2
92 10 10 6 14 12 8 12 -6 0 -13 -2 -16 -5z"/>
<path d="M3396 1131 c-3 -4 -24 -8 -48 -10 -23 -1 -45 -5 -48 -8 -6 -7 128 2
136 9 2 3 -4 8 -16 11 -11 3 -22 2 -24 -2z"/>
<path d="M1448 1113 c7 -3 16 -2 19 1 4 3 -2 6 -13 5 -11 0 -14 -3 -6 -6z"/>
<path d="M3545 1110 c-3 -5 -1 -10 4 -10 6 0 11 5 11 10 0 6 -2 10 -4 10 -3 0
-8 -4 -11 -10z"/>
<path d="M1358 1103 c6 -2 18 -2 25 0 6 3 1 5 -13 5 -14 0 -19 -2 -12 -5z"/>
<path d="M3583 1099 c25 -14 21 -32 -5 -24 -20 5 -19 3 5 -12 15 -10 25 -23
23 -30 -7 -17 16 -22 76 -16 42 4 58 2 70 -11 10 -10 19 -12 23 -6 8 13 -37
30 -81 30 -19 0 -34 4 -34 10 0 5 14 7 33 4 l32 -5 -25 15 c-14 8 -31 15 -38
16 -7 0 -22 9 -34 20 -12 11 -31 20 -42 20 -19 -1 -19 -2 -3 -11z"/>
<path d="M3218 1093 c7 -3 16 -2 19 1 4 3 -2 6 -13 5 -11 0 -14 -3 -6 -6z"/>
<path d="M3113 1083 c9 -2 23 -2 30 0 6 3 -1 5 -18 5 -16 0 -22 -2 -12 -5z"/>
<path d="M6878 1083 c7 -3 16 -2 19 1 4 3 -2 6 -13 5 -11 0 -14 -3 -6 -6z"/>
<path d="M2930 1060 c-34 -7 -34 -7 -5 -8 17 0 39 3 50 8 24 10 4 10 -45 0z"/>
<path d="M2806 1041 c-4 -5 3 -7 14 -4 23 6 26 13 6 13 -8 0 -17 -4 -20 -9z"/>
<path d="M2760 1030 c0 -5 7 -7 15 -4 8 4 15 8 15 10 0 2 -7 4 -15 4 -8 0 -15
-4 -15 -10z"/>
<path d="M2593 1013 c9 -2 25 -2 35 0 9 3 1 5 -18 5 -19 0 -27 -2 -17 -5z"/>
<path d="M4722 990 c0 -14 2 -19 5 -12 2 6 2 18 0 25 -3 6 -5 1 -5 -13z"/>
<path d="M3790 988 c0 -19 26 -42 34 -30 3 5 -3 17 -14 27 -17 15 -20 16 -20
3z"/>
<path d="M1970 981 c0 -6 4 -13 10 -16 6 -3 7 1 4 9 -7 18 -14 21 -14 7z"/>
<path d="M7015 980 c-16 -7 -17 -9 -3 -9 9 -1 20 4 23 9 7 11 7 11 -20 0z"/>
<path d="M7112 973 c-10 -4 -10 -8 -1 -19 8 -10 8 -14 0 -14 -6 0 -11 -9 -11
-20 0 -12 7 -20 18 -20 13 0 14 2 3 9 -7 5 -10 14 -6 20 5 9 10 9 21 0 12 -10
13 -9 8 5 -7 19 -8 19 35 6 19 -5 30 -6 25 -1 -5 5 -18 11 -29 13 -11 2 -19
10 -17 16 1 7 -2 12 -8 12 -5 0 -10 -8 -11 -17 0 -16 -1 -16 -7 -2 -4 9 -13
14 -20 12z"/>
<path d="M2230 959 c0 -5 9 -9 20 -9 11 0 20 2 20 4 0 2 -9 6 -20 9 -11 3 -20
1 -20 -4z"/>
<path d="M3755 960 c3 -5 8 -10 11 -10 2 0 4 5 4 10 0 6 -5 10 -11 10 -5 0 -7
-4 -4 -10z"/>
<path d="M7258 952 c-23 -15 -24 -18 -10 -32 14 -13 15 -12 10 2 -4 10 -1 19
8 22 28 11 35 6 29 -16 -6 -21 -5 -22 8 -5 8 9 19 17 25 17 6 0 14 5 18 11 4
8 -1 9 -15 4 -12 -4 -28 -2 -34 4 -9 7 -20 5 -39 -7z"/>
<path d="M7040 950 c-13 -9 -13 -10 0 -9 8 0 24 4 35 9 l20 9 -20 0 c-11 0
-27 -4 -35 -9z"/>
<path d="M1977 944 c-4 -4 -7 -17 -7 -28 1 -19 1 -20 11 -3 11 19 8 43 -4 31z"/>
<path d="M453 916 c2 -6 14 -10 25 -8 12 2 22 -2 22 -7 0 -15 -43 -14 -57 0
-15 15 -43 4 -43 -16 0 -11 7 -14 23 -11 12 3 44 8 71 11 l49 7 -29 17 c-32
20 -67 23 -61 7z"/>
<path d="M518 923 c7 -3 16 -2 19 1 4 3 -2 6 -13 5 -11 0 -14 -3 -6 -6z"/>
<path d="M4128 913 c7 -3 16 -2 19 1 4 3 -2 6 -13 5 -11 0 -14 -3 -6 -6z"/>
<path d="M4145 890 c-3 -5 -4 -10 -1 -10 2 0 12 -3 20 -6 12 -5 15 -2 10 10
-7 18 -20 21 -29 6z"/>
<path d="M7213 886 c-47 -16 -48 -24 -4 -24 42 -1 55 6 43 25 -5 7 -17 7 -39
-1z"/>
<path d="M648 883 c12 -2 30 -2 40 0 9 3 -1 5 -23 4 -22 0 -30 -2 -17 -4z"/>
<path d="M4070 882 c0 -5 7 -15 15 -22 8 -7 15 -9 15 -6 0 4 -7 14 -15 22 -8
9 -15 11 -15 6z"/>
<path d="M7320 864 c0 -10 6 -13 19 -9 21 6 53 -3 46 -15 -7 -11 42 -30 60
-24 20 8 19 24 0 24 -9 0 -35 9 -57 20 -50 24 -68 25 -68 4z"/>
<path d="M7495 869 c-16 -6 -14 -8 13 -8 33 -1 41 4 20 12 -7 2 -22 1 -33 -4z"/>
<path d="M4119 864 c-1 -5 -1 -16 0 -26 1 -9 -3 -19 -9 -23 -15 -9 -12 -51 5
-65 8 -7 15 -9 15 -4 1 18 40 -39 40 -58 0 -14 5 -18 15 -14 8 3 24 -4 35 -16
17 -19 20 -19 20 -5 0 10 -11 22 -25 27 -35 13 -33 40 4 40 16 0 32 -6 34 -12
4 -9 6 -8 7 2 0 8 7 23 14 33 13 16 15 16 30 2 16 -17 22 -9 8 11 -9 15 -43
21 -59 11 -16 -10 -17 5 -1 21 9 9 7 12 -10 12 -16 0 -21 -5 -19 -20 2 -11 6
-23 10 -26 14 -14 6 -24 -17 -22 -18 2 -22 6 -15 14 5 6 7 18 3 27 -3 8 0 18
5 22 6 3 9 11 6 16 -4 5 9 9 28 9 34 0 35 1 24 25 -8 17 -13 20 -15 10 -2 -8
-8 -12 -13 -9 -6 3 -19 -2 -29 -11 -10 -9 -23 -14 -29 -11 -5 3 -18 -5 -29
-19 -16 -20 -21 -22 -26 -10 -3 8 -1 15 3 15 16 0 19 26 5 45 -8 10 -15 15
-15 9z m59 -113 c3 -8 -1 -12 -9 -9 -7 2 -15 10 -17 17 -3 8 1 12 9 9 7 -2 15
-10 17 -17z"/>
<path d="M4170 850 c0 -5 4 -10 9 -10 6 0 13 5 16 10 3 6 -1 10 -9 10 -9 0
-16 -4 -16 -10z"/>
<path d="M4036 835 c4 -8 11 -15 16 -15 6 0 5 6 -2 15 -7 8 -14 15 -16 15 -2
0 -1 -7 2 -15z"/>
<path d="M7641 831 c-8 -5 -30 -7 -50 -5 -35 4 -35 4 -11 -8 14 -7 27 -15 30
-19 3 -3 12 -9 20 -12 11 -5 9 -6 -5 -5 -11 0 -28 -3 -39 -7 -11 -5 -21 -3
-26 5 -7 11 -11 10 -24 -2 -14 -14 -14 -17 0 -22 8 -3 13 -2 10 2 -2 4 13 7
34 7 21 0 37 -2 35 -6 -2 -3 9 -6 25 -6 31 0 52 26 22 28 -14 0 -14 2 3 9 18
8 17 9 -8 9 -26 1 -27 2 -13 17 24 23 22 31 -3 15z"/>
<path d="M7498 813 c7 -3 16 -2 19 1 4 3 -2 6 -13 5 -11 0 -14 -3 -6 -6z"/>
<path d="M4290 801 c0 -5 5 -13 10 -16 6 -3 10 -2 10 4 0 5 -4 13 -10 16 -5 3
-10 2 -10 -4z"/>
<path d="M4332 778 c-1 -17 3 -35 9 -38 8 -6 8 -13 0 -29 -8 -14 -8 -21 -1
-21 18 0 24 31 11 53 -9 13 -9 23 -3 29 6 6 8 17 5 24 -9 24 -19 15 -21 -18z"/>
<path d="M7470 743 c0 -14 -2 -15 -9 -5 -7 11 -10 10 -15 -3 -10 -26 -8 -27
24 -10 32 17 40 35 15 35 -8 0 -15 -8 -15 -17z"/>
<path d="M7560 741 c0 -6 -7 -11 -16 -11 -8 0 -12 -5 -9 -11 4 -6 10 -8 13 -5
3 3 14 -2 25 -11 11 -10 17 -12 13 -5 -5 8 2 14 23 18 39 8 41 25 3 22 -15 -1
-33 1 -40 6 -7 4 -12 2 -12 -3z"/>
<path d="M4389 728 c-5 -37 -3 -55 8 -77 6 -13 9 -30 6 -37 -3 -8 0 -14 7 -14
7 0 9 -8 5 -20 -5 -15 -3 -18 8 -14 17 6 32 -12 17 -21 -12 -8 -13 -45 -1 -45
4 0 6 -11 3 -25 -5 -27 15 -34 36 -13 22 22 14 -11 -8 -34 -24 -26 -26 -48 -4
-48 11 0 14 6 9 20 -4 11 -2 20 4 20 6 0 11 -7 11 -16 0 -8 5 -12 10 -9 13 8
13 -35 0 -55 -8 -12 -10 -12 -16 4 -5 14 -9 15 -15 4 -16 -24 -10 -48 11 -48
11 0 20 5 20 10 0 6 5 10 10 10 16 0 12 -60 -4 -66 -8 -3 -17 -13 -21 -22 -5
-14 -4 -15 6 -4 7 6 24 12 36 12 13 0 23 6 22 13 -3 25 1 38 11 32 6 -3 10
-17 10 -31 0 -14 4 -23 8 -20 11 7 3 66 -9 66 -5 0 -6 7 -2 16 5 13 1 15 -18
9 -15 -4 -19 -3 -11 3 13 9 13 73 0 83 -13 9 22 69 40 69 12 0 13 3 4 12 -8 8
-15 8 -27 -2 -12 -10 -19 -10 -27 -2 -7 7 -8 12 -2 12 5 0 2 5 -6 10 -13 9
-12 13 8 29 13 12 18 22 12 26 -5 3 -10 1 -10 -4 0 -6 -4 -11 -10 -11 -16 0
-12 28 5 38 13 7 11 13 -15 41 -30 30 -32 31 -37 12 -3 -12 -9 -21 -14 -21
-14 0 -7 63 8 81 12 14 12 17 -2 22 -10 4 -15 0 -16 -13 -1 -11 -2 -26 -3 -32
-1 -16 -17 -28 -28 -21 -5 2 -6 13 -3 23 3 11 0 20 -10 23 -8 4 -12 13 -9 22
3 8 3 15 0 15 -3 0 -7 -6 -7 -12z m121 -127 c0 -4 -6 -16 -14 -26 -13 -18 -14
-17 -13 17 1 29 4 35 14 26 7 -6 13 -14 13 -17z m-15 -81 c3 -5 1 -10 -4 -10
-6 0 -11 5 -11 10 0 6 2 10 4 10 3 0 8 -4 11 -10z m25 -70 c0 -5 -2 -10 -4
-10 -3 0 -8 5 -11 10 -3 6 -1 10 4 10 6 0 11 -4 11 -10z"/>
<path d="M4275 720 c-8 -14 13 -22 31 -12 14 8 14 10 -5 15 -11 3 -23 1 -26
-3z"/>
<path d="M4230 708 c0 -4 5 -19 12 -33 11 -25 40 -33 66 -16 11 6 10 10 -5 16
-10 4 -27 10 -38 12 -10 2 -23 9 -27 16 -4 6 -8 9 -8 5z"/>
<path d="M4240 616 c0 -7 11 -16 25 -19 26 -4 26 -4 6 14 -24 23 -31 24 -31 5z"/>
<path d="M4555 580 c-3 -5 -1 -10 4 -10 6 0 11 5 11 10 0 6 -2 10 -4 10 -3 0
-8 -4 -11 -10z"/>
<path d="M4310 530 c0 -5 5 -10 11 -10 5 0 7 5 4 10 -3 6 -8 10 -11 10 -2 0
-4 -4 -4 -10z"/>
<path d="M4346 475 c-17 -25 -14 -45 5 -45 5 0 9 6 8 13 -3 25 1 38 11 32 6
-3 10 -2 10 4 0 22 -19 19 -34 -4z"/>
<path d="M4000 480 c0 -5 5 -10 10 -10 6 0 10 5 10 10 0 6 -4 10 -10 10 -5 0
-10 -4 -10 -10z"/>
<path d="M4122 466 c-17 -37 -15 -46 8 -46 11 0 20 -6 20 -12 0 -7 5 -5 11 5
8 14 7 23 -4 35 -8 9 -16 23 -19 31 -2 8 -8 3 -16 -13z"/>
<path d="M4240 475 c0 -8 -5 -15 -10 -15 -6 0 -22 -11 -36 -24 l-26 -23 25 -7
c28 -7 45 -36 21 -36 -8 0 -12 -4 -9 -10 3 -5 -1 -10 -9 -10 -8 0 -17 8 -19
18 -4 16 -5 16 -6 0 -1 -20 -16 -24 -27 -7 -3 6 0 15 7 20 10 6 8 9 -8 9 -18
0 -22 -5 -20 -22 1 -13 11 -25 22 -29 20 -5 23 -34 4 -53 -15 -16 -24 4 -11
24 7 11 8 20 3 20 -6 0 -13 -5 -17 -11 -4 -8 -9 -7 -15 2 -7 11 -9 10 -9 -3 0
-10 9 -27 20 -38 11 -11 19 -23 18 -27 -2 -5 9 -8 24 -8 19 -1 25 2 18 9 -13
13 -13 56 0 56 6 0 10 7 10 15 0 11 5 12 26 5 16 -7 23 -7 19 0 -3 5 5 21 19
35 15 14 26 29 26 32 0 4 -5 2 -12 -5 -17 -17 -28 -15 -28 7 0 14 -5 18 -20
14 -11 -3 -20 0 -20 6 0 14 58 43 71 35 7 -4 7 1 0 15 -13 24 -31 28 -31 6z"/>
<path d="M4028 455 c-13 -13 5 -45 26 -45 12 0 16 3 10 8 -6 4 -15 15 -20 25
-6 10 -13 15 -16 12z"/>
<path d="M4590 405 c0 -8 7 -15 16 -15 14 0 14 3 4 15 -7 8 -14 15 -16 15 -2
0 -4 -7 -4 -15z"/>
<path d="M4360 380 c-13 -8 -12 -10 3 -10 9 0 17 5 17 10 0 12 -1 12 -20 0z"/>
<path d="M4008 368 c17 -17 15 -29 -3 -22 -8 4 -15 1 -15 -4 0 -18 18 -23 38
-11 19 12 19 12 1 30 -11 11 -22 19 -26 19 -4 0 -2 -5 5 -12z"/>
<path d="M4244 313 c-12 -16 -24 -40 -27 -55 l-7 -27 25 25 c14 14 25 31 25
39 0 8 5 15 10 15 6 0 10 7 10 15 0 23 -14 18 -36 -12z"/>
<path d="M3110 320 c-62 -5 -63 -5 -27 -13 20 -4 42 -5 47 -2 5 3 19 1 31 -5
17 -9 24 -8 40 6 18 17 20 17 32 0 11 -16 27 -17 127 -13 63 3 123 8 133 12
10 4 17 3 17 -3 0 -7 11 -7 35 -1 19 6 40 7 45 4 6 -3 18 -8 27 -10 10 -2 23
-4 28 -5 6 -1 23 -2 39 -1 22 1 26 4 18 14 -12 14 -68 22 -147 20 -170 -5
-267 -5 -320 -1 -33 2 -89 2 -125 -2z"/>
<path d="M5571 284 c0 -11 3 -14 6 -6 3 7 2 16 -1 19 -3 4 -6 -2 -5 -13z"/>
<path d="M4480 280 c0 -5 5 -10 11 -10 5 0 7 5 4 10 -3 6 -8 10 -11 10 -2 0
-4 -4 -4 -10z"/>
<path d="M4612 260 c0 -14 2 -19 5 -12 2 6 2 18 0 25 -3 6 -5 1 -5 -13z"/>
<path d="M4270 226 c0 -8 7 -16 15 -20 13 -4 14 -2 5 14 -13 23 -20 26 -20 6z"/>
<path d="M5587 234 c-4 -4 -7 -14 -7 -23 0 -11 3 -12 11 -4 6 6 10 16 7 23 -2
6 -7 8 -11 4z"/>
<path d="M4147 210 c-3 -11 -1 -20 3 -20 5 0 11 8 13 18 4 16 5 16 6 0 0 -10
5 -18 10 -18 5 0 7 9 4 20 -3 11 -11 20 -18 20 -7 0 -15 -9 -18 -20z"/>
<path d="M4526 216 c14 -11 16 -17 7 -27 -6 -6 -9 -18 -6 -25 3 -8 0 -14 -5
-14 -9 0 -10 -79 -2 -100 3 -7 21 72 21 93 0 14 3 16 13 8 8 -6 21 -9 30 -5
14 6 14 8 -5 25 -12 10 -19 25 -16 33 4 9 -3 16 -16 20 -36 9 -42 7 -21 -8z"/>
<path d="M4114 207 c-2 -7 0 -24 5 -38 9 -22 9 -20 9 14 -1 39 -5 46 -14 24z"/>
<path d="M4237 191 c-4 -17 -3 -21 5 -13 5 5 8 16 6 23 -3 8 -7 3 -11 -10z"/>
<path d="M4151 159 c-11 -18 -11 -23 1 -31 10 -7 10 -11 -4 -22 -10 -7 -15
-16 -11 -20 3 -3 14 1 24 10 13 11 15 22 10 37 -5 12 -6 28 -4 35 7 19 -1 14
-16 -9z"/>
<path d="M4190 171 c0 -6 5 -13 10 -16 6 -4 8 -10 5 -15 -5 -9 25 -23 33 -16
7 7 -26 56 -38 56 -6 0 -10 -4 -10 -9z"/>
<path d="M4484 166 c-8 -22 3 -33 18 -18 9 9 9 15 0 24 -9 9 -13 7 -18 -6z"/>
<path d="M4818 171 c12 -6 30 -8 40 -5 13 5 14 4 4 -4 -10 -7 14 -23 92 -61
92 -45 106 -55 106 -76 l0 -25 423 0 c241 0 416 4 407 9 -31 18 -343 91 -496
115 -87 15 -175 29 -194 32 -105 18 -416 30 -382 15z"/>
<path d="M4401 144 c0 -11 3 -14 6 -6 3 7 2 16 -1 19 -3 4 -6 -2 -5 -13z"/>
<path d="M4634 107 c2 -18 4 -48 5 -67 1 -29 5 -36 22 -36 18 0 18 2 5 12 -19
14 -22 69 -3 58 10 -6 10 -4 0 7 -15 16 -17 33 -3 24 16 -10 11 -1 -9 17 -18
16 -19 15 -17 -15z"/>
<path d="M4553 114 c3 -4 2 -14 -2 -23 -7 -12 -3 -19 16 -28 24 -12 25 -11 9
6 -9 10 -14 25 -10 35 4 10 1 16 -7 16 -7 0 -9 -3 -6 -6z"/>
<path d="M3388 87 c-12 -4 -29 -5 -39 -2 -11 4 -19 2 -19 -3 0 -6 -11 -13 -25
-16 -14 -4 -35 -16 -47 -28 -12 -12 -38 -25 -57 -29 -28 -5 -18 -7 40 -8 71
-1 148 17 133 31 -7 8 22 17 64 20 17 1 32 6 32 11 0 5 9 6 19 2 11 -3 22 -1
26 5 3 5 15 10 26 10 10 0 19 4 19 10 0 11 -140 9 -172 -3z"/>
<path d="M4271 84 c0 -11 3 -14 6 -6 3 7 2 16 -1 19 -3 4 -6 -2 -5 -13z"/>
<path d="M4187 40 c-9 -17 -11 -32 -6 -36 5 -3 9 2 9 10 0 9 5 15 11 14 13 -3
21 30 9 37 -5 3 -15 -8 -23 -25z"/>
<path d="M4551 44 c0 -11 3 -14 6 -6 3 7 2 16 -1 19 -3 4 -6 -2 -5 -13z"/>
<path d="M3620 10 c-13 -8 -12 -10 3 -10 9 0 17 5 17 10 0 12 -1 12 -20 0z"/>
</g>
</svg>
